<svg width="70" height="70" viewBox="0 0 70 70" fill="none" xmlns="http://www.w3.org/2000/svg">
<rect width="70" height="70" rx="34" fill="white"/>
<g clip-path="url(#clip0_4193_5694)">
<path d="M35 5C18.433 5 5 18.433 5 35C5 51.567 18.433 65 35 65C51.567 65 65 51.567 65 35C65 18.433 51.567 5 35 5ZM35 59.9107C21.2455 59.9107 10.0893 48.7545 10.0893 35C10.0893 21.2455 21.2455 10.0893 35 10.0893C48.7545 10.0893 59.9107 21.2455 59.9107 35C59.9107 48.7545 48.7545 59.9107 35 59.9107Z" fill="#C72525"/>
<path d="M31.7847 46.7857C31.7847 47.6382 32.1233 48.4558 32.7261 49.0586C33.3289 49.6614 34.1465 50 34.999 50C35.8514 50 36.669 49.6614 37.2718 49.0586C37.8746 48.4558 38.2132 47.6382 38.2132 46.7857C38.2132 45.9332 37.8746 45.1157 37.2718 44.5129C36.669 43.9101 35.8514 43.5714 34.999 43.5714C34.1465 43.5714 33.3289 43.9101 32.7261 44.5129C32.1233 45.1157 31.7847 45.9332 31.7847 46.7857ZM33.3918 39.2857H36.6061C36.9007 39.2857 37.1418 39.0446 37.1418 38.75V20.5357C37.1418 20.2411 36.9007 20 36.6061 20H33.3918C33.0972 20 32.8561 20.2411 32.8561 20.5357V38.75C32.8561 39.0446 33.0972 39.2857 33.3918 39.2857Z" fill="#C72525"/>
</g>
<defs>
<clipPath id="clip0_4193_5694">
<rect width="60" height="60" fill="white" transform="translate(5 5)"/>
</clipPath>
</defs>
</svg>
