<svg width="26" height="26" viewBox="0 0 26 26" fill="none" xmlns="http://www.w3.org/2000/svg">
<path d="M13 0C5.82098 0 0 5.82098 0 13C0 20.179 5.82098 26 13 26C20.179 26 26 20.179 26 13C26 5.82098 20.179 0 13 0ZM12.0714 6.73214C12.0714 6.60446 12.1759 6.5 12.3036 6.5H13.6964C13.8241 6.5 13.9286 6.60446 13.9286 6.73214V14.625C13.9286 14.7527 13.8241 14.8571 13.6964 14.8571H12.3036C12.1759 14.8571 12.0714 14.7527 12.0714 14.625V6.73214ZM13 19.5C12.6355 19.4926 12.2885 19.3425 12.0333 19.0821C11.7782 18.8217 11.6353 18.4717 11.6353 18.1071C11.6353 17.7426 11.7782 17.3925 12.0333 17.1321C12.2885 16.8717 12.6355 16.7217 13 16.7143C13.3645 16.7217 13.7115 16.8717 13.9667 17.1321C14.2218 17.3925 14.3647 17.7426 14.3647 18.1071C14.3647 18.4717 14.2218 18.8217 13.9667 19.0821C13.7115 19.3425 13.3645 19.4926 13 19.5Z" fill="#DE2020" fill-opacity="0.85"/>
</svg>
