<svg width="23" height="23" viewBox="0 0 23 23" fill="none" xmlns="http://www.w3.org/2000/svg">
<path d="M12.8295 11.4987L19.5678 3.46664C19.6807 3.33316 19.5857 3.13037 19.4112 3.13037H17.3627C17.2421 3.13037 17.1266 3.18428 17.047 3.27669L11.4895 9.90202L5.93204 3.27669C5.85503 3.18428 5.73952 3.13037 5.6163 3.13037H3.56787C3.39331 3.13037 3.29834 3.33316 3.41128 3.46664L10.1496 11.4987L3.41128 19.5307C3.38598 19.5605 3.36975 19.5968 3.36451 19.6356C3.35928 19.6743 3.36526 19.7136 3.38175 19.7491C3.39823 19.7845 3.42453 19.8144 3.45752 19.8353C3.49052 19.8562 3.52881 19.8672 3.56787 19.867H5.6163C5.73695 19.867 5.85247 19.8131 5.93204 19.7207L11.4895 13.0953L17.047 19.7207C17.124 19.8131 17.2395 19.867 17.3627 19.867H19.4112C19.5857 19.867 19.6807 19.6642 19.5678 19.5307L12.8295 11.4987Z" fill="#4D4D4D" fill-opacity="0.85"/>
</svg>
