<svg width="218" height="186" viewBox="0 0 218 186" fill="none" xmlns="http://www.w3.org/2000/svg">
<g clip-path="url(#clip0_3897_3315)">
<path d="M122.443 18.1467C122.544 19.306 121.839 19.8605 123.198 20.415C126.169 21.6247 126.773 21.5743 129.491 23.5906C129.542 26.1613 132.714 28.2784 134.929 29.0345C135.03 29.1857 135.281 29.3873 135.483 29.5889C135.684 29.7906 135.835 29.9922 136.036 30.1434C136.792 31.1515 140.417 36.7971 140.417 37.5028C140.417 39.0654 136.842 39.519 135.885 41.1824C133.267 45.6686 140.87 47.6345 142.481 41.7369C144.092 35.8393 142.481 38.9646 142.581 38.8637C142.783 38.6621 148.019 37.8556 148.824 37.7548C157.283 36.9987 164.734 39.9727 172.487 42.6442C178.025 44.5597 183.715 50.1044 187.088 54.9434C189.857 58.9759 190.411 61.8491 192.122 66.1337C193.834 70.4182 193.18 66.5369 193.18 66.8393C193.18 69.8133 193.733 69.3597 193.733 69.5613C193.733 70.267 192.878 71.3759 193.18 72.5353L191.015 73.3418C194.388 76.8702 192.122 82.0621 191.015 86.0946C186.836 83.8263 180.492 86.2963 180.19 91.2361C179.939 95.6215 187.188 93.202 189.504 91.5385C191.82 89.8751 190.461 88.9678 192.626 89.371C193.582 93.9076 193.482 98.293 192.122 102.678C190.763 107.064 187.088 111.953 184.47 114.877C181.852 117.8 176.666 118.556 173.041 120.875C173.142 121.934 175.86 121.43 176.465 121.278C177.774 120.926 179.334 119.817 180.643 119.212C178.478 123.9 172.94 126.974 168.308 128.89C162.015 131.41 160.555 132.166 154.715 135.443C145.351 140.685 142.783 139.828 132.814 140.987L133.62 139.374C129.894 139.223 126.471 140.735 122.745 140.987C119.019 141.239 115.545 140.534 112.927 140.987C110.309 141.441 111.467 141.945 111.568 143.155C106.785 144.012 100.693 145.776 95.8097 146.935C91.8323 145.171 87.0997 148.195 83.0217 148.095C78.9436 147.994 79.9505 146.986 79.7492 146.986C77.3325 147.086 80.9575 150.867 82.7196 150.212C79.3967 150.716 77.3325 151.421 73.7579 151.27C69.0757 151.069 62.6314 148.498 58.503 148.649C56.0863 148.75 51.9076 150.615 48.7358 150.716C43.8018 150.917 37.8106 149.506 33.6318 146.834C30.8124 145.02 29.5034 142.298 26.1806 140.987C26.5833 140.987 27.7413 139.828 28.8489 140.534C29.9566 141.239 29.3021 142.046 29.7552 142.6C31.8194 145.121 41.2845 149.708 44.1542 146.683C41.6873 146.734 29.9566 143.205 30.5607 140.231C31.1649 137.257 34.7898 138.719 33.8332 134.838C32.8766 130.956 30.0572 133.326 28.9496 134.838C27.842 136.35 27.9427 138.669 27.7413 138.82C27.4392 139.072 25.6268 138.769 24.8716 138.921C23.5626 139.173 22.2536 139.979 20.9949 139.979C19.7362 139.979 18.83 138.921 17.4706 138.87L18.5783 141.038C16.1113 140.786 14.3492 140.08 12.0332 139.425C12.0332 139.273 10.976 136.904 10.8249 136.804C10.4725 136.501 9.71729 136.804 9.31452 136.703C2.61845 135.14 0.0507812 125.059 0.0507812 119.313L2.21568 120.926C1.41014 114.07 2.92053 107.568 9.26418 104.09C9.11314 104.342 9.26418 105.098 8.9621 105.652C7.70344 107.87 2.21568 116.137 7.09928 116.036C5.89097 112.508 8.91175 108.374 10.976 105.552C13.0402 102.729 14.0471 103.586 13.0905 102.477C12.1339 101.368 10.2208 103.233 9.81799 103.586C11.127 101.67 15.2554 98.0914 17.5713 98.7971C19.8873 99.5028 19.2831 100.713 20.139 101.116C23.2605 102.527 26.9861 99.906 25.8785 96.4784C24.7709 93.0507 19.0817 96.0247 17.9238 95.2182C16.7658 94.4117 15.4064 88.5646 15.2554 87.506C14.5506 81.9109 15.1044 75.1564 17.1182 69.9141C19.1321 64.6719 19.0817 66.3353 19.5348 63.4117C20.6928 56.4052 30.0572 51.8182 35.2933 48.7434C35.0415 50.3564 35.8974 49.9532 36.9547 49.6003C41.6369 48.0377 44.6577 45.1646 50.1455 45.1646C55.6332 45.1646 52.0586 46.4751 52.7635 48.945C53.4683 51.415 57.8988 51.8686 59.6609 51.415C60.6175 48.0377 60.5672 46.4751 57.345 44.8621C54.1228 43.2491 54.878 45.2654 55.5829 41.6865C56.8919 35.4865 64.2928 31.706 69.4785 28.9337C69.3274 27.0182 67.515 27.8751 66.206 28.1271C65.9039 26.8166 66.8605 27.0182 67.6157 26.6149C70.7875 24.9011 74.06 22.3808 76.527 21.0702C78.994 19.7597 89.1136 16.4328 91.7316 15.6263C94.3496 14.8198 96.7662 14.6182 99.3339 14.5174C100.542 16.9369 101.096 20.5158 102.053 22.9353C103.009 25.3548 102.506 24.4979 103.664 24.2963C103.664 23.3385 103.664 22.3808 103.513 21.4231C103.211 19.8101 101.65 15.6263 100.945 13.9629C107.087 13.9125 113.33 14.8198 119.17 16.6345C125.011 18.4491 121.386 17.9954 122.141 18.2979L122.443 18.1467ZM123.5 23.0361C124.205 22.4312 122.644 21.5743 122.242 21.3223C120.379 20.0621 112.474 17.441 110.108 17.1385C107.742 16.8361 106.684 17.1385 105.023 17.0881C105.023 19.5076 107.893 18.4995 109.554 18.8019C111.216 19.1044 112.877 19.4068 114.488 19.8605C116.099 20.3141 122.997 23.5402 123.5 23.0865V23.0361ZM101.247 21.4231C95.2055 23.5906 102.858 29.3873 105.879 25.758C108.9 22.1288 101.7 26.0605 100.693 24.6491L101.197 21.4231H101.247ZM78.3898 28.48C75.1173 28.7824 70.7875 31.1515 67.9177 32.9158C65.048 34.68 63.1852 35.3857 64.2928 36.5954C65.4004 37.8052 75.5704 29.8914 77.3325 29.7906L78.4402 28.48H78.3898ZM63.739 37.7044C61.6245 37.7044 61.5741 39.8719 63.739 39.8719V37.7044ZM170.473 46.7272C166.446 43.3499 160.203 40.5272 154.765 40.3759C149.328 40.2247 150.083 41.7369 152.6 42.0393C156.93 42.5434 159.75 42.3922 164.029 44.2068C168.308 46.0215 170.071 49.4491 173.545 49.3987C172.739 48.2898 171.531 47.6345 170.473 46.7272ZM45.7653 49.6507C34.7898 51.1629 20.139 59.1776 19.1321 71.3759C20.8942 71.628 20.6928 68.7044 21.3473 67.3434C26.4826 56.8085 34.6388 55.1954 44.3556 51.2637C45.2115 50.9109 45.9164 50.8605 45.715 49.6507H45.7653ZM158.843 70.8215C154.614 71.1743 151.644 66.4865 147.213 67.041C142.783 67.5954 137.446 75.5093 141.625 75.106C145.804 74.7028 146.307 71.3759 149.328 71.3255C152.298 71.3255 158.34 76.6686 158.843 70.8215ZM78.7926 70.9727C76.678 71.4767 73.1034 75.3076 71.0392 76.8198C68.975 78.332 67.666 77.6263 68.8743 79.5922C70.8378 82.8182 77.3829 76.0133 79.7995 75.7613C82.2161 75.5093 83.9279 76.2654 84.9348 76.5678C86.697 77.0719 89.5667 79.7938 90.2715 77.0215C90.9764 74.2491 86.5459 73.1402 85.2873 72.3841C82.9713 70.9727 81.7127 70.3174 78.7422 70.9727H78.7926ZM139.812 82.7678C139.561 82.5158 137.295 82.8686 136.691 83.1711C135.533 83.7255 135.181 85.2881 134.123 86.0442C129.844 89.2198 121.486 91.4881 116.099 91.9418C110.712 92.3954 102.657 90.0263 96.0614 87.6572C93.5944 86.9515 90.5233 90.0263 92.7889 92.0426C95.0545 94.0589 99.8374 92.3954 102.053 92.5971C112.374 93.6052 116.2 96.2767 126.924 92.4458C129.29 91.5889 135.785 88.8166 137.849 87.6068C139.913 86.3971 140.87 83.8263 139.812 82.8182V82.7678Z" fill="#A5A5D3" fill-opacity="0.2"/>
<path d="M193.078 72.4844C193.078 72.6356 194.035 73.0388 194.236 73.7949C195.898 79.6421 196.502 78.7348 199.271 83.4226C206.622 95.9234 211.404 109.432 213.167 123.849C214.929 138.265 212.613 126.52 214.425 129.696C215.583 131.712 218.654 137.458 218 139.525C216.59 144.162 214.576 131.914 213.167 132.266C214.073 136.652 211.505 145.271 211.002 135.543C209.642 133.98 207.931 143.81 206.722 139.525C205.514 135.24 210.549 131.611 211.002 129.242C212.21 122.891 208.233 108.122 205.866 101.871C204.96 99.4519 196.653 82.0616 195.545 81.7592C193.582 81.1543 193.481 85.1364 193.632 86.3966C193.834 88.312 195.294 88.7153 196.149 90.4291C199.07 96.5283 196.452 103.283 193.28 108.727C190.108 114.171 186.886 116.54 180.693 119.211C179.334 119.816 177.823 120.925 176.514 121.278C175.205 121.631 173.192 121.883 173.091 120.875C176.716 118.606 181.65 118.102 184.519 114.876C189.101 113.213 193.934 104.644 195.042 100.107C196.149 95.5706 195.696 89.8746 192.676 89.3202C189.655 88.7657 190.561 90.7819 189.554 91.4876C187.238 93.2015 179.988 95.621 180.24 91.1852C180.492 86.1949 186.835 83.725 191.064 86.0437C192.172 82.0112 194.488 76.8193 191.064 73.2909L193.229 72.4844H193.078ZM186.433 86.699C182.707 87.3039 179.132 93.7559 185.526 91.7901C191.92 89.8242 190.259 88.8665 189.604 87.7071C188.95 86.5478 187.389 86.5478 186.433 86.699Z" fill="#3B3947" fill-opacity="0.3"/>
<path d="M19.6852 63.2106C19.1818 66.1341 18.3762 66.7894 17.2686 69.713C15.2548 74.9553 14.7009 81.7098 15.4058 87.3049C16.1106 92.9 17.5203 94.6138 18.0741 95.0171C19.1818 95.8236 24.8709 92.7992 26.0289 96.2772C27.1869 99.7553 23.4109 102.326 20.2894 100.915C17.1679 99.5033 18.779 98.8984 17.7217 98.5959C15.4058 97.9407 11.2774 101.469 9.96838 103.385C9.76699 103.536 9.5656 103.637 9.41456 103.939C3.07092 107.417 1.51018 113.869 2.36607 120.775L0.201172 119.162C0.201172 118.809 0.201172 118.456 0.201172 118.053V117.498C0.805329 110.643 2.6178 105.703 7.80348 100.915C12.9892 96.126 15.1541 96.0756 15.3554 95.3699C15.8086 93.9585 13.4926 88.2122 13.2912 86.1455C13.0899 84.0789 13.4423 75.9634 13.8451 73.7959C14.2478 71.6285 16.3624 65.7309 17.1176 64.5715C17.8728 63.4122 18.7287 63.3114 19.7859 63.1602L19.6852 63.2106ZM24.5688 95.8236C24.2164 95.5715 19.4839 96.7813 18.628 97.1342C19.0811 99.3016 24.4681 100.562 25.0723 98.0919C25.6765 95.622 24.7199 95.874 24.5688 95.7732V95.8236Z" fill="#3B3947" fill-opacity="0.3"/>
<path d="M9.36485 136.551C9.76762 136.652 10.5228 136.299 10.8752 136.652C11.2277 137.005 12.0332 139.122 12.0836 139.273C12.1339 139.424 11.5297 139.878 11.5297 140.584C11.5297 147.489 9.26415 168.106 13.3926 172.995C14.4498 174.255 22.0521 179.8 21.8508 180.808C21.1963 183.833 14.9533 176.574 14.2485 177.28L16.9672 184.589L15.3057 185.143L12.0836 178.893C11.6808 181.312 13.4933 186.353 9.91866 185.95C8.86138 184.942 10.8752 175.566 10.8752 173.751C10.8752 170.828 9.21381 167.652 8.86138 165.031C8.30757 160.494 8.71034 155.403 8.86138 150.968C9.01242 146.532 9.41519 141.39 9.41519 136.602L9.36485 136.551ZM13.9967 176.221V176.776C14.3491 176.574 14.3491 176.423 13.9967 176.221Z" fill="#3B3947" fill-opacity="0.3"/>
<path d="M172.437 42.5933C164.734 39.9217 157.283 36.9477 148.774 37.7038C147.968 37.7542 142.732 38.5607 142.531 38.8128C142.33 39.0648 142.632 40.9299 142.43 41.686C140.819 47.5835 133.217 45.6177 135.835 41.1315C136.792 39.4681 140.366 39.0144 140.366 37.4518C140.366 35.8892 136.741 31.1006 135.986 30.0925C135.231 29.0843 135.634 29.7396 135.432 29.538C135.281 29.3868 134.979 29.1347 134.878 28.9835C133.519 26.8664 131.606 25.1526 129.441 23.5396C127.276 21.9266 126.118 21.5738 123.148 20.364C121.788 19.8095 122.493 19.2551 122.392 18.0957C128.182 20.3136 130.196 20.616 134.828 25.5055C139.46 30.3949 142.229 36.2924 142.883 36.4941C144.394 36.9981 149.982 35.5868 152.046 35.4859C157.836 35.2843 165.992 37.603 171.128 40.325C176.263 43.0469 172.638 41.0307 172.437 42.5429V42.5933ZM140.92 39.8713C137.144 40.325 134.878 44.1055 140.316 43.6014L140.92 39.8713Z" fill="#3B3947" fill-opacity="0.3"/>
<path d="M76.7783 20.8693C75.57 19.1555 76.8286 16.6856 77.6845 14.9718C79.2956 11.6953 85.3875 5.64656 89.1635 5.24331C92.9395 4.84006 91.6808 5.79778 93.0905 5.69696L92.5367 0.253067C95.9602 -0.301405 94.0974 1.26119 95.0037 3.47908C95.9099 5.69697 99.9376 10.7376 101.247 13.8124C101.951 15.4758 103.563 19.6596 103.814 21.2726C104.066 22.8856 104.016 23.188 103.965 24.1457C102.807 24.3474 102.656 23.6417 102.354 22.7848C101.398 20.3653 100.844 16.8368 99.6355 14.3669C98.4272 11.897 97.8231 11.897 97.1686 10.5864C96.0106 13.0059 93.3422 13.3084 91.9829 15.4758C89.3649 16.2319 78.6914 19.8612 76.7783 20.9197V20.8693ZM95.7085 7.36039C93.0905 6.20104 87.5524 6.6547 85.3372 8.36852C83.1219 10.0823 83.9275 10.6872 83.0212 11.6449C81.1081 13.762 78.3893 15.0222 78.3893 18.7019C82.8702 17.8953 88.1566 16.1311 92.0332 13.6108C94.6009 11.9474 96.4637 10.8888 95.6582 7.36039H95.7085Z" fill="#3B3947" fill-opacity="0.3"/>
<path d="M66.4569 27.9253C67.7659 27.6733 69.5784 26.8163 69.7295 28.7318C64.5941 31.5042 57.1428 35.2846 55.8338 41.4846C54.5248 47.6846 55.5821 43.6521 57.596 44.6603C60.7678 46.2733 60.8685 47.8359 59.9119 51.2131C58.0994 51.6668 53.5683 50.6082 53.0144 48.7432C52.4606 46.8781 54.3738 45.0131 50.3964 44.9627C46.4191 44.9123 41.8879 47.8359 37.2057 49.3985C32.5235 50.9611 35.2925 50.1546 35.5442 48.5415C37.9105 47.1302 38.565 45.4163 41.5355 44.509C44.5059 43.6017 49.1378 43.0976 52.8634 43.0472C53.8703 39.2667 55.5318 36.4944 58.3512 33.8733L58.905 33.3188C59.6098 32.7643 60.365 32.2098 61.0699 31.7058C62.3285 30.7985 64.7452 30.3448 64.8962 28.4294C65.0976 28.3285 66.4569 27.9253 66.5073 27.8749L66.4569 27.9253ZM56.438 46.0716C55.8338 45.7188 55.0786 45.6684 54.4745 45.3155C54.6255 46.1724 54.1724 47.9367 54.5248 48.4911C54.8773 49.0456 59.3077 50.5074 58.8043 48.2895C58.3008 46.0716 56.589 46.122 56.438 46.0212V46.0716Z" fill="#3B3947" fill-opacity="0.3"/>
<path d="M18.6281 140.886L17.5205 138.718C18.8799 138.718 19.5344 139.827 21.0448 139.827C22.5551 139.827 23.6124 139.021 24.9214 138.769C26.2304 138.516 27.4891 138.92 27.7912 138.668C28.0933 138.416 28.2946 135.593 28.9995 134.686C30.1071 133.224 33.6314 133.829 33.8831 134.686C34.8397 138.567 30.812 139.121 30.6106 140.079C29.9561 143.103 41.7371 146.582 44.2041 146.531C41.3344 149.556 31.8692 144.969 29.805 142.448C27.7408 139.928 29.1002 140.482 28.8988 140.382C27.8415 139.726 26.6332 140.835 26.2304 140.835C25.6766 140.835 25.1228 140.835 24.6193 140.835C22.9076 140.886 20.8434 140.986 19.1819 140.835C17.5205 140.684 18.8295 140.835 18.6281 140.835V140.886ZM32.1713 135.492C31.2651 134.585 29.1002 137.055 29.4526 138.214C30.9127 138.869 32.9265 136.299 32.1713 135.492Z" fill="#3B3947" fill-opacity="0.3"/>
<path d="M111.568 143.053C111.467 141.844 111.568 141.138 112.927 140.886C115.545 140.382 119.774 141.088 122.745 140.886C125.715 140.684 129.844 139.122 133.619 139.273L132.814 140.886C130.901 141.088 128.283 142.247 126.017 142.499C121.134 143.104 116.351 142.197 111.618 143.053H111.568Z" fill="#3B3947" fill-opacity="0.3"/>
<path d="M95.8091 146.885C91.1268 148.044 88.1061 149.355 82.7693 150.161C81.0072 150.816 77.3319 146.986 79.7989 146.935C82.2659 146.885 81.4603 147.994 83.0714 148.044C87.1495 148.195 91.882 145.12 95.8594 146.885H95.8091Z" fill="#3B3947" fill-opacity="0.3"/>
<path d="M64.7961 28.4805C64.6954 30.3959 62.2787 30.7992 60.9697 31.7569C61.5739 29.7406 63.0339 29.1862 64.7961 28.4805Z" fill="#A5A5D3" fill-opacity="0.2"/>
<path d="M24.5693 140.886C23.4616 141.793 20.3402 141.793 19.1318 140.886C20.7933 141.037 22.8575 140.936 24.5693 140.886Z" fill="#A5A5D3" fill-opacity="0.2"/>
<path d="M58.3008 33.9236C58.5022 33.7724 58.6532 33.5204 58.8546 33.3691L58.3008 33.9236Z" fill="#A5A5D3" fill-opacity="0.2"/>
<path d="M139.812 82.7671C140.819 83.7752 139.208 86.7492 137.849 87.5557C135.835 88.7655 129.34 91.5378 126.924 92.3947C116.2 96.2256 112.323 93.5037 102.052 92.546C99.8875 92.3443 94.0977 93.1508 92.7886 91.9915C90.5231 89.9752 93.5942 86.9004 96.0612 87.6061C102.657 90.0256 108.95 92.4955 116.099 91.8907C123.248 91.2858 129.844 89.2191 134.123 85.9931C138.403 82.7671 135.482 83.6744 136.691 83.1199C137.899 82.5655 139.56 82.4647 139.812 82.7167V82.7671Z" fill="#3B3947" fill-opacity="0.3"/>
<path d="M78.7924 70.972C81.7628 70.3167 83.0215 70.972 85.3374 72.3834C87.6534 73.7947 90.6742 75.7102 90.3217 77.0207C89.5665 79.7931 86.7471 77.0207 84.985 76.5671C83.2229 76.1134 80.7559 75.7102 79.8497 75.7606C77.3827 75.9622 70.888 82.8175 68.9245 79.5915C66.961 76.3655 70.0825 77.6256 71.0894 76.8191C73.1033 75.3069 76.7282 71.476 78.8428 70.972H78.7924Z" fill="#3B3947" fill-opacity="0.3"/>
<path d="M158.842 70.8203C158.339 76.6674 152.297 71.3243 149.327 71.3243C146.357 71.3243 142.782 75.004 141.624 75.1048C137.395 75.5081 144.242 67.3926 147.212 67.0398C151.693 66.4853 154.613 71.1731 158.842 70.8203Z" fill="#3B3947" fill-opacity="0.3"/>
<path d="M45.7647 49.6504C45.9661 50.8601 45.2109 50.9106 44.4054 51.2634C34.6382 55.1951 26.5324 56.8081 21.3971 67.3431C16.2617 77.878 20.9439 71.6276 19.1818 71.3756C20.1888 59.1772 34.8396 51.1626 45.8151 49.6504H45.7647Z" fill="white" fill-opacity="0.2"/>
<path d="M184.419 114.826C187.037 111.902 190.813 106.459 192.072 102.628C193.33 98.7967 193.532 93.8065 192.575 89.3203C195.596 89.8748 195.495 97.6878 194.941 100.107C193.834 104.644 189.051 113.213 184.419 114.876V114.826Z" fill="white" fill-opacity="0.2"/>
<path d="M170.473 46.7258C171.48 47.5827 172.689 48.238 173.544 49.3973C170.071 49.4981 167.402 45.6169 164.029 44.2055C160.656 42.7941 156.93 42.542 152.6 42.038C148.271 41.5339 152.852 40.3242 154.765 40.3746C160.203 40.4754 166.446 43.2982 170.473 46.7258Z" fill="white" fill-opacity="0.2"/>
<path d="M123.499 23.0357C122.996 23.4893 115.897 20.1625 114.487 19.8097C113.078 19.4568 111.164 19.0536 109.553 18.7511C107.942 18.4487 104.972 19.5072 105.022 17.0373C106.734 17.0877 108.446 16.8861 110.107 17.0877C111.769 17.2893 120.378 20.0113 122.241 21.2715C124.103 22.5316 124.204 22.3804 123.499 22.9853V23.0357Z" fill="white" fill-opacity="0.2"/>
<path d="M9.91793 103.434C10.3207 103.131 12.9891 102.173 13.1904 102.325C14.1974 103.434 11.6297 104.694 11.0759 105.399C8.96135 108.222 5.94057 112.356 7.19923 115.884C2.31562 115.985 7.80338 107.769 9.06204 105.5C10.3207 103.232 9.21308 104.19 9.36412 103.938C9.51516 103.686 9.6662 103.585 9.91793 103.383V103.434Z" fill="white" fill-opacity="0.2"/>
<path d="M78.3896 28.4805L77.282 29.791C75.5199 29.9423 64.7457 37.1504 64.2423 36.5959C63.1346 35.3862 67.112 33.3699 67.8672 32.9162C70.7873 31.1016 75.0667 28.7829 78.3393 28.4805H78.3896Z" fill="white" fill-opacity="0.2"/>
<path d="M101.246 21.4219L100.743 24.6479C101.75 26.0593 107.691 23.5894 105.928 25.7568C102.908 29.3861 95.255 23.5894 101.297 21.4219H101.246Z" fill="#3B3947" fill-opacity="0.3"/>
<path d="M99.5847 14.3664C97.0171 14.4168 94.4494 14.7193 91.9824 15.4754C93.3418 13.3583 96.0101 13.0054 97.1681 10.5859C97.7723 11.9469 98.9806 13.1063 99.6351 14.3664H99.5847Z" fill="white" fill-opacity="0.2"/>
<path d="M134.929 29.0338C132.713 28.2777 129.542 26.1606 129.491 23.5898C131.606 25.2029 133.569 26.9167 134.929 29.0338Z" fill="white" fill-opacity="0.2"/>
<path d="M63.7386 37.7031V39.8706C61.5737 39.8706 61.6241 37.7031 63.7386 37.7031Z" fill="white" fill-opacity="0.2"/>
<path d="M136.036 30.0916C135.835 29.9404 135.684 29.7387 135.482 29.5371C135.684 29.6883 135.885 29.89 136.036 30.0916Z" fill="white" fill-opacity="0.2"/>
<path d="M186.432 86.6995C187.389 86.5482 189.101 86.8507 189.604 87.7076C190.259 88.8669 186.483 91.5385 185.526 91.7905C179.132 93.7564 182.757 87.3043 186.432 86.6995Z" fill="#A5A5D3" fill-opacity="0.2"/>
<path d="M24.5688 95.8223C24.7198 95.9231 25.173 97.6873 25.0723 98.141C24.4681 100.611 19.081 99.3507 18.6279 97.1832C19.4838 96.78 24.2164 95.6206 24.5688 95.8727V95.8223Z" fill="#A5A5D3" fill-opacity="0.2"/>
<path d="M13.9961 176.221C14.3485 176.422 14.3485 176.574 13.9961 176.775V176.221Z" fill="white" fill-opacity="0.2"/>
<path d="M140.919 39.8711L140.315 43.6012C134.878 44.1052 137.143 40.3248 140.919 39.8711Z" fill="#A5A5D3" fill-opacity="0.2"/>
<path d="M95.7083 7.35972C96.4635 10.8882 94.6007 11.9971 92.0833 13.6101C88.2067 16.08 82.9203 17.8947 78.4395 18.7012C78.4395 15.0215 81.1582 13.7613 83.0713 11.6443C84.9845 9.5272 84.5817 8.92232 85.3873 8.36785C87.6025 6.70443 93.191 6.20037 95.7586 7.35972H95.7083Z" fill="#A5A5D3" fill-opacity="0.2"/>
<path d="M56.4387 46.0709C56.5897 46.1717 58.7546 48.1376 58.805 48.3392C59.3084 50.5571 54.7772 48.8937 54.5255 48.5408C54.1731 47.936 54.5759 46.2221 54.4752 45.3652C55.0793 45.7181 55.8345 45.7685 56.4387 46.1213V46.0709Z" fill="#A5A5D3" fill-opacity="0.2"/>
<path d="M32.1714 135.493C32.9266 136.3 30.9128 138.87 29.4527 138.215C29.05 137.056 31.2652 134.586 32.1714 135.493Z" fill="#A5A5D3" fill-opacity="0.2"/>
</g>
<defs>
<clipPath id="clip0_3897_3315">
<rect width="218" height="186" fill="white"/>
</clipPath>
</defs>
</svg>
