<svg width="22" height="22" viewBox="0 0 22 22" fill="none" xmlns="http://www.w3.org/2000/svg">
<path d="M7.26772 2.94413H7.07129C7.17933 2.94413 7.26772 2.85573 7.26772 2.7477V2.94413H14.732V2.7477C14.732 2.85573 14.8204 2.94413 14.9284 2.94413H14.732V4.71198H16.4999V2.7477C16.4999 1.88096 15.7952 1.17627 14.9284 1.17627H7.07129C6.20455 1.17627 5.49986 1.88096 5.49986 2.7477V4.71198H7.26772V2.94413ZM19.6427 4.71198H2.357C1.92241 4.71198 1.57129 5.0631 1.57129 5.4977V6.28341C1.57129 6.39145 1.65968 6.47984 1.76772 6.47984H3.25075L3.85723 19.3214C3.89651 20.1586 4.58892 20.8191 5.4262 20.8191H16.5735C17.4133 20.8191 18.1032 20.1611 18.1425 19.3214L18.749 6.47984H20.232C20.34 6.47984 20.4284 6.39145 20.4284 6.28341V5.4977C20.4284 5.0631 20.0773 4.71198 19.6427 4.71198ZM16.3845 19.0513H5.61526L5.02107 6.47984H16.9787L16.3845 19.0513Z" fill="#F35659"/>
</svg>
