<svg width="20" height="25" viewBox="0 0 20 25" fill="none" xmlns="http://www.w3.org/2000/svg">
<path d="M16.9049 13.7771C16.5049 12.8295 15.9244 11.9689 15.1958 11.243C14.4693 10.5151 13.6088 9.93466 12.6617 9.53387C12.6532 9.52963 12.6448 9.52751 12.6363 9.52327C13.9574 8.56903 14.8162 7.01467 14.8162 5.26099C14.8162 2.35586 12.4624 0.00205994 9.55725 0.00205994C6.65212 0.00205994 4.29832 2.35586 4.29832 5.26099C4.29832 7.01467 5.15714 8.56903 6.47823 9.52539C6.46975 9.52963 6.46127 9.53175 6.45279 9.53599C5.50279 9.93677 4.65033 10.5114 3.91875 11.2451C3.19079 11.9716 2.61039 12.8321 2.2096 13.7792C1.81586 14.7064 1.60351 15.7005 1.58404 16.7076C1.58347 16.7303 1.58744 16.7528 1.59571 16.7739C1.60398 16.7949 1.61639 16.8141 1.6322 16.8304C1.64801 16.8466 1.6669 16.8594 1.68777 16.8682C1.70863 16.877 1.73104 16.8815 1.75368 16.8815H3.026C3.11931 16.8815 3.19352 16.8073 3.19564 16.7161C3.23806 15.0791 3.89542 13.5459 5.05747 12.3839C6.25982 11.1815 7.85658 10.5199 9.55725 10.5199C11.2579 10.5199 12.8547 11.1815 14.057 12.3839C15.2191 13.5459 15.8764 15.0791 15.9189 16.7161C15.921 16.8094 15.9952 16.8815 16.0885 16.8815H17.3608C17.3835 16.8815 17.4059 16.877 17.4267 16.8682C17.4476 16.8594 17.4665 16.8466 17.4823 16.8304C17.4981 16.8141 17.5105 16.7949 17.5188 16.7739C17.5271 16.7528 17.531 16.7303 17.5305 16.7076C17.5093 15.694 17.2993 14.708 16.9049 13.7771V13.7771ZM9.55725 8.90831C8.58393 8.90831 7.66785 8.52874 6.97868 7.83956C6.28951 7.15039 5.90993 6.23432 5.90993 5.26099C5.90993 4.28766 6.28951 3.37159 6.97868 2.68242C7.66785 1.99324 8.58393 1.61367 9.55725 1.61367C10.5306 1.61367 11.4466 1.99324 12.1358 2.68242C12.825 3.37159 13.2046 4.28766 13.2046 5.26099C13.2046 6.23432 12.825 7.15039 12.1358 7.83956C11.4466 8.52874 10.5306 8.90831 9.55725 8.90831Z" fill="black" fill-opacity="0.85"/>
<path d="M9.54285 15.6431L16.1506 21.2421C16.2604 21.3359 16.4283 21.2583 16.429 21.1141L16.4373 19.4219C16.4378 19.3222 16.3937 19.2266 16.3177 19.1605L10.8673 14.5427L16.3628 9.97868C16.4395 9.91544 16.4845 9.82023 16.485 9.71845L16.4933 8.02628C16.494 7.88209 16.3269 7.80281 16.2162 7.89557L9.55373 13.4293L2.946 7.83037C2.92153 7.80935 2.89153 7.79579 2.85958 7.79131C2.82763 7.78683 2.79507 7.79161 2.76575 7.80508C2.73644 7.81856 2.7116 7.84016 2.6942 7.86733C2.6768 7.8945 2.66756 7.92609 2.66758 7.95836L2.65927 9.65052C2.65878 9.75019 2.70284 9.84583 2.77885 9.91194L8.22934 14.5297L2.73374 19.0937C2.65709 19.157 2.61209 19.2522 2.61159 19.354L2.60328 21.0461C2.60257 21.1903 2.76971 21.2696 2.88043 21.1769L9.54285 15.6431Z" fill="#BA0000" fill-opacity="0.75"/>
</svg>
