<svg width="31" height="31" viewBox="0 0 31 31" fill="none" xmlns="http://www.w3.org/2000/svg">
<rect width="31" height="31" rx="15.5" fill="#9169EC"/>
<path d="M25.083 22.0836C23.7847 23.9719 21.9573 25.4346 19.8305 26.2878C17.7037 27.1411 15.3722 27.3469 13.1288 26.8795C10.8853 26.4121 8.83002 25.2923 7.2209 23.6607C5.61178 22.0291 4.52059 19.9584 4.08437 17.7088C3.8635 16.5559 4.90975 15.6395 6.07612 15.7771C8.53481 16.0599 12.5551 16.4688 15.5001 16.4688C18.4451 16.4688 22.4654 16.0619 24.9241 15.7751C26.0905 15.6395 27.1367 16.554 26.9159 17.7088C26.6148 19.2783 25.9906 20.7681 25.083 22.0836ZM24.9319 17.7242C22.4519 18.0091 18.4819 18.4062 15.5001 18.4062C12.5183 18.4062 8.54643 18.0091 6.06837 17.7242C6.2815 18.631 6.6225 19.4874 7.07006 20.2759C9.86678 20.6256 12.6817 20.8099 15.5001 20.8281C18.3186 20.8099 21.1335 20.6256 23.9302 20.2759C24.3777 19.4874 24.7187 18.6291 24.9319 17.7242ZM22.2969 22.4053C20.3206 22.599 17.9278 22.7656 15.5001 22.7656C13.0724 22.7656 10.6796 22.599 8.70531 22.4053C10.5174 24.1883 12.9579 25.1876 15.5001 25.1875C18.0424 25.1876 20.4828 24.1883 22.2949 22.4053H22.2969ZM12.5706 13.5625C12.7915 12.9929 12.9174 12.3302 12.9174 11.625C12.9174 9.48406 11.7607 7.75 10.3328 7.75C8.90681 7.75 7.75012 9.48406 7.75012 11.625C7.75012 12.3302 7.87606 12.9929 8.095 13.5625C8.54062 12.4039 9.37762 11.625 10.3328 11.625C11.2899 11.625 12.125 12.4039 12.5706 13.5625ZM23.2501 11.625C23.2501 12.3302 23.1242 12.9929 22.9052 13.5625C22.4596 12.4039 21.6226 11.625 20.6674 11.625C19.7103 11.625 18.8752 12.4039 18.4296 13.5625C18.1968 12.9432 18.0793 12.2866 18.0828 11.625C18.0828 9.48406 19.2395 7.75 20.6674 7.75C22.0934 7.75 23.2501 9.48406 23.2501 11.625Z" fill="#4D4D4D"/>
<path d="M15.5 31C19.6109 31 23.5533 29.367 26.4602 26.4602C29.367 23.5533 31 19.6109 31 15.5C31 11.3891 29.367 7.44666 26.4602 4.53984C23.5533 1.63303 19.6109 0 15.5 0C11.3891 0 7.44666 1.63303 4.53984 4.53984C1.63303 7.44666 0 11.3891 0 15.5C0 19.6109 1.63303 23.5533 4.53984 26.4602C7.44666 29.367 11.3891 31 15.5 31ZM15.5 29.0625C11.903 29.0625 8.45333 27.6336 5.90986 25.0901C3.3664 22.5467 1.9375 19.097 1.9375 15.5C1.9375 11.903 3.3664 8.45333 5.90986 5.90986C8.45333 3.3664 11.903 1.9375 15.5 1.9375C19.097 1.9375 22.5467 3.3664 25.0901 5.90986C27.6336 8.45333 29.0625 11.903 29.0625 15.5C29.0625 19.097 27.6336 22.5467 25.0901 25.0901C22.5467 27.6336 19.097 29.0625 15.5 29.0625Z" fill="#4D4D4D"/>
</svg>
