<svg width="31" height="31" viewBox="0 0 31 31" fill="none" xmlns="http://www.w3.org/2000/svg">
<rect width="31" height="31" rx="15.5" fill="#C4B5FD"/>
<path d="M15.5 29.0625C11.903 29.0625 8.45333 27.6336 5.90986 25.0901C3.3664 22.5467 1.9375 19.097 1.9375 15.5C1.9375 11.903 3.3664 8.45333 5.90986 5.90986C8.45333 3.3664 11.903 1.9375 15.5 1.9375C19.097 1.9375 22.5467 3.3664 25.0901 5.90986C27.6336 8.45333 29.0625 11.903 29.0625 15.5C29.0625 19.097 27.6336 22.5467 25.0901 25.0901C22.5467 27.6336 19.097 29.0625 15.5 29.0625ZM15.5 31C19.6109 31 23.5533 29.367 26.4602 26.4602C29.367 23.5533 31 19.6109 31 15.5C31 11.3891 29.367 7.44666 26.4602 4.53984C23.5533 1.63303 19.6109 0 15.5 0C11.3891 0 7.44666 1.63303 4.53984 4.53984C1.63303 7.44666 0 11.3891 0 15.5C0 19.6109 1.63303 23.5533 4.53984 26.4602C7.44666 29.367 11.3891 31 15.5 31Z" fill="#4D4D4D"/>
<path d="M7.75 20.3438C7.75 20.6007 7.85206 20.8471 8.03374 21.0288C8.21542 21.2104 8.46182 21.3125 8.71875 21.3125H22.2812C22.5382 21.3125 22.7846 21.2104 22.9663 21.0288C23.1479 20.8471 23.25 20.6007 23.25 20.3438C23.25 20.0868 23.1479 19.8404 22.9663 19.6587C22.7846 19.4771 22.5382 19.375 22.2812 19.375H8.71875C8.46182 19.375 8.21542 19.4771 8.03374 19.6587C7.85206 19.8404 7.75 20.0868 7.75 20.3438ZM13.5625 12.5938C13.5625 10.9895 12.6945 9.6875 11.625 9.6875C10.5555 9.6875 9.6875 10.9895 9.6875 12.5938C9.6875 14.198 10.5555 15.5 11.625 15.5C12.6945 15.5 13.5625 14.198 13.5625 12.5938ZM21.3125 12.5938C21.3125 10.9895 20.4445 9.6875 19.375 9.6875C18.3055 9.6875 17.4375 10.9895 17.4375 12.5938C17.4375 14.198 18.3055 15.5 19.375 15.5C20.4445 15.5 21.3125 14.198 21.3125 12.5938Z" fill="#4D4D4D"/>
</svg>
