<svg width="31" height="31" viewBox="0 0 31 31" fill="none" xmlns="http://www.w3.org/2000/svg">
<rect width="31" height="31" rx="15.5" fill="#A78BFA"/>
<path d="M15.5 29.0625C11.903 29.0625 8.45333 27.6336 5.90986 25.0901C3.3664 22.5467 1.9375 19.097 1.9375 15.5C1.9375 11.903 3.3664 8.45333 5.90986 5.90986C8.45333 3.3664 11.903 1.9375 15.5 1.9375C19.097 1.9375 22.5467 3.3664 25.0901 5.90986C27.6336 8.45333 29.0625 11.903 29.0625 15.5C29.0625 19.097 27.6336 22.5467 25.0901 25.0901C22.5467 27.6336 19.097 29.0625 15.5 29.0625ZM15.5 31C19.6109 31 23.5533 29.367 26.4602 26.4602C29.367 23.5533 31 19.6109 31 15.5C31 11.3891 29.367 7.44666 26.4602 4.53984C23.5533 1.63303 19.6109 0 15.5 0C11.3891 0 7.44666 1.63303 4.53984 4.53984C1.63303 7.44666 0 11.3891 0 15.5C0 19.6109 1.63303 23.5533 4.53984 26.4602C7.44666 29.367 11.3891 31 15.5 31Z" fill="#4D4D4D"/>
<path d="M8.30173 18.5361C8.52423 18.4076 8.78865 18.3728 9.03682 18.4393C9.28498 18.5058 9.49657 18.6681 9.62504 18.8906C10.2204 19.9218 11.0767 20.778 12.1079 21.3732C13.1391 21.9684 14.3089 22.2816 15.4995 22.2812C16.6902 22.2816 17.86 21.9684 18.8912 21.3732C19.9224 20.778 20.7787 19.9218 21.374 18.8906C21.4372 18.7796 21.5217 18.6821 21.6226 18.6038C21.7236 18.5255 21.8391 18.468 21.9624 18.4345C22.0857 18.4011 22.2144 18.3923 22.3411 18.4088C22.4678 18.4252 22.5899 18.4666 22.7006 18.5305C22.8112 18.5944 22.9081 18.6795 22.9857 18.781C23.0633 18.8825 23.1201 18.9983 23.1528 19.1218C23.1854 19.2453 23.1933 19.3741 23.176 19.5007C23.1587 19.6273 23.1165 19.7492 23.0519 19.8594C22.2865 21.185 21.1856 22.2858 19.8599 23.0511C18.5341 23.8163 17.0303 24.2191 15.4995 24.2188C13.9688 24.2191 12.4649 23.8163 11.1392 23.0511C9.81345 22.2858 8.71254 21.185 7.94717 19.8594C7.81871 19.6369 7.7839 19.3725 7.85039 19.1243C7.91688 18.8761 8.07923 18.6645 8.30173 18.5361ZM13.562 12.5938C13.562 14.198 12.694 15.5 11.6245 15.5C10.555 15.5 9.68704 14.198 9.68704 12.5938C9.68704 10.9895 10.555 9.6875 11.6245 9.6875C12.694 9.6875 13.562 10.9895 13.562 12.5938ZM21.312 12.5938C21.312 14.198 20.444 15.5 19.3745 15.5C18.305 15.5 17.437 14.198 17.437 12.5938C17.437 10.9895 18.305 9.6875 19.3745 9.6875C20.444 9.6875 21.312 10.9895 21.312 12.5938Z" fill="#4D4D4D"/>
</svg>
