<svg width="31" height="31" viewBox="0 0 31 31" fill="none" xmlns="http://www.w3.org/2000/svg">
<rect width="31" height="31" rx="15.5" fill="#EDE9FE"/>
<path d="M15.5 29.0625C11.903 29.0625 8.45333 27.6336 5.90986 25.0901C3.3664 22.5467 1.9375 19.097 1.9375 15.5C1.9375 11.903 3.3664 8.45333 5.90986 5.90986C8.45333 3.3664 11.903 1.9375 15.5 1.9375C19.097 1.9375 22.5467 3.3664 25.0901 5.90986C27.6336 8.45333 29.0625 11.903 29.0625 15.5C29.0625 19.097 27.6336 22.5467 25.0901 25.0901C22.5467 27.6336 19.097 29.0625 15.5 29.0625ZM15.5 31C19.6109 31 23.5533 29.367 26.4602 26.4602C29.367 23.5533 31 19.6109 31 15.5C31 11.3891 29.367 7.44666 26.4602 4.53984C23.5533 1.63303 19.6109 0 15.5 0C11.3891 0 7.44666 1.63303 4.53984 4.53984C1.63303 7.44666 0 11.3891 0 15.5C0 19.6109 1.63303 23.5533 4.53984 26.4602C7.44666 29.367 11.3891 31 15.5 31Z" fill="#4D4D4D"/>
<path d="M13.2351 22.1456C13.9536 21.8494 14.7228 21.6954 15.5 21.6923C17.2747 21.6923 18.6136 22.4827 19.8594 23.2926C20.2701 23.56 20.6809 23.1589 20.4057 22.7559C19.313 21.1478 17.3871 18.786 15.5 18.786C14.4731 18.786 13.4346 19.4854 12.524 20.3825C12.6868 20.7313 12.8366 21.0768 12.9735 21.4191C13.0626 21.6438 13.1498 21.8847 13.2351 22.1418V22.1456ZM11.625 21.9577C11.625 23.7402 10.323 25.1875 8.71875 25.1875C7.1145 25.1875 5.8125 23.7421 5.8125 21.9577C5.8125 20.5898 7.52138 17.5208 8.31963 16.1646C8.36013 16.0946 8.41832 16.0365 8.48838 15.9961C8.55843 15.9556 8.63788 15.9344 8.71875 15.9344C8.79962 15.9344 8.87907 15.9556 8.94912 15.9961C9.01918 16.0365 9.07737 16.0946 9.11787 16.1646C9.91612 17.5208 11.625 20.5898 11.625 21.9577ZM13.5625 12.5938C13.5625 14.198 12.6945 15.5 11.625 15.5C10.5555 15.5 9.6875 14.198 9.6875 12.5938C9.6875 10.9895 10.5555 9.6875 11.625 9.6875C12.6945 9.6875 13.5625 10.9895 13.5625 12.5938ZM21.3125 12.5938C21.3125 14.198 20.4445 15.5 19.375 15.5C18.3055 15.5 17.4375 14.198 17.4375 12.5938C17.4375 10.9895 18.3055 9.6875 19.375 9.6875C20.4445 9.6875 21.3125 10.9895 21.3125 12.5938ZM18.4062 6.78125C18.4062 6.52432 18.5083 6.27792 18.69 6.09624C18.8717 5.91456 19.1181 5.8125 19.375 5.8125C21.6264 5.8125 23.9281 6.944 25.0848 9.2535C25.143 9.36735 25.178 9.49159 25.1879 9.61906C25.1979 9.74652 25.1824 9.87469 25.1426 9.99617C25.1027 10.1176 25.0392 10.23 24.9558 10.3269C24.8723 10.4237 24.7704 10.503 24.6561 10.5603C24.5418 10.6176 24.4173 10.6517 24.2898 10.6606C24.1622 10.6695 24.0342 10.6531 23.913 10.6123C23.7919 10.5715 23.68 10.5072 23.5838 10.4229C23.4876 10.3387 23.4091 10.2362 23.3527 10.1215C22.5699 8.556 20.9986 7.75 19.375 7.75C19.1181 7.75 18.8717 7.64794 18.69 7.46626C18.5083 7.28458 18.4062 7.03818 18.4062 6.78125ZM13.5625 6.78125C13.5625 6.52432 13.4604 6.27792 13.2788 6.09624C13.0971 5.91456 12.8507 5.8125 12.5938 5.8125C10.3424 5.8125 8.04062 6.944 6.88394 9.2535C6.82578 9.36735 6.79073 9.49159 6.78081 9.61906C6.77089 9.74652 6.7863 9.87469 6.82615 9.99617C6.866 10.1176 6.9295 10.23 7.013 10.3269C7.09649 10.4237 7.19832 10.503 7.31263 10.5603C7.42693 10.6176 7.55143 10.6517 7.67897 10.6606C7.80651 10.6695 7.93455 10.6531 8.05572 10.6123C8.17689 10.5715 8.28878 10.5072 8.38495 10.4229C8.48113 10.3387 8.55967 10.2362 8.61606 10.1215C9.39881 8.556 10.9701 7.75 12.5938 7.75C12.8507 7.75 13.0971 7.64794 13.2788 7.46626C13.4604 7.28458 13.5625 7.03818 13.5625 6.78125Z" fill="#4D4D4D"/>
</svg>
