<svg width="31" height="31" viewBox="0 0 31 31" fill="none" xmlns="http://www.w3.org/2000/svg">
<rect width="31" height="31" rx="15.5" fill="#DDD6FE"/>
<path d="M15.5 29.0625C11.903 29.0625 8.45333 27.6336 5.90986 25.0901C3.3664 22.5467 1.9375 19.097 1.9375 15.5C1.9375 11.903 3.3664 8.45333 5.90986 5.90986C8.45333 3.3664 11.903 1.9375 15.5 1.9375C19.097 1.9375 22.5467 3.3664 25.0901 5.90986C27.6336 8.45333 29.0625 11.903 29.0625 15.5C29.0625 19.097 27.6336 22.5467 25.0901 25.0901C22.5467 27.6336 19.097 29.0625 15.5 29.0625ZM15.5 31C19.6109 31 23.5533 29.367 26.4602 26.4602C29.367 23.5533 31 19.6109 31 15.5C31 11.3891 29.367 7.44666 26.4602 4.53984C23.5533 1.63303 19.6109 0 15.5 0C11.3891 0 7.44666 1.63303 4.53984 4.53984C1.63303 7.44666 0 11.3891 0 15.5C0 19.6109 1.63303 23.5533 4.53984 26.4602C7.44666 29.367 11.3891 31 15.5 31Z" fill="#4D4D4D"/>
<path d="M8.30173 24.0889C8.52423 24.2174 8.78865 24.2522 9.03682 24.1857C9.28498 24.1192 9.49657 23.9569 9.62504 23.7344C10.2204 22.7032 11.0767 21.847 12.1079 21.2518C13.1391 20.6566 14.3089 20.3434 15.4995 20.3438C18.0086 20.3438 20.1999 21.7058 21.374 23.7344C21.5034 23.9551 21.7148 24.1156 21.9622 24.181C22.2095 24.2464 22.4726 24.2113 22.6942 24.0834C22.9157 23.9555 23.0776 23.7451 23.1447 23.4983C23.2117 23.2514 23.1784 22.988 23.0519 22.7656C22.2865 21.44 21.1856 20.3392 19.8599 19.5739C18.5341 18.8087 17.0303 18.4059 15.4995 18.4062C13.9688 18.4059 12.4649 18.8087 11.1392 19.5739C9.81345 20.3392 8.71254 21.44 7.94717 22.7656C7.81871 22.9881 7.7839 23.2525 7.85039 23.5007C7.91688 23.7489 8.07923 23.9605 8.30173 24.0889ZM13.562 12.5938C13.562 14.198 12.694 15.5 11.6245 15.5C10.555 15.5 9.68704 14.198 9.68704 12.5938C9.68704 10.9895 10.555 9.6875 11.6245 9.6875C12.694 9.6875 13.562 10.9895 13.562 12.5938ZM21.312 12.5938C21.312 14.198 20.444 15.5 19.3745 15.5C18.305 15.5 17.437 14.198 17.437 12.5938C17.437 10.9895 18.305 9.6875 19.3745 9.6875C20.444 9.6875 21.312 10.9895 21.312 12.5938Z" fill="#4D4D4D"/>
</svg>
