<svg width="237" height="70" viewBox="0 0 237 70" fill="none" xmlns="http://www.w3.org/2000/svg">
<path d="M14.3438 2.25V3.90625H2.54688V25H0.625V2.25H14.3438ZM1.875 12.1094H8.17188C9.81771 12.1094 11.1979 12.3802 12.3125 12.9219C13.4375 13.4531 14.2865 14.2031 14.8594 15.1719C15.4323 16.1302 15.7188 17.25 15.7188 18.5312C15.7188 19.4792 15.5573 20.349 15.2344 21.1406C14.9115 21.9323 14.4323 22.6198 13.7969 23.2031C13.1615 23.776 12.375 24.2188 11.4375 24.5312C10.5 24.8438 9.41146 25 8.17188 25H0.625V2.25H2.54688V23.3594H8.17188C9.50521 23.3594 10.5833 23.1354 11.4062 22.6875C12.2292 22.2292 12.8333 21.6302 13.2188 20.8906C13.6042 20.151 13.7969 19.3542 13.7969 18.5C13.7969 17.6562 13.6042 16.875 13.2188 16.1562C12.8333 15.4375 12.2292 14.8594 11.4062 14.4219C10.5833 13.974 9.50521 13.75 8.17188 13.75H1.875V12.1094ZM25.4062 23.3125L30.6719 8.09375H32.6875L25.5312 27.7188C25.3854 28.1042 25.1979 28.5312 24.9688 29C24.75 29.4688 24.4583 29.9167 24.0938 30.3438C23.7396 30.7812 23.2917 31.1354 22.75 31.4062C22.2188 31.6875 21.5677 31.8281 20.7969 31.8281C20.599 31.8281 20.3438 31.8021 20.0312 31.75C19.7292 31.7083 19.5104 31.6667 19.375 31.625L19.3594 30.0469C19.474 30.0781 19.6406 30.1042 19.8594 30.125C20.0781 30.1458 20.2292 30.1562 20.3125 30.1562C20.9896 30.1562 21.5573 30.0417 22.0156 29.8125C22.4844 29.5833 22.875 29.2396 23.1875 28.7812C23.5 28.3333 23.776 27.7708 24.0156 27.0938L25.4062 23.3125ZM20.4844 8.09375L25.875 22.6094L26.375 24.5625L25.0156 25.3281L18.4531 8.09375H20.4844ZM37.7344 8.09375H39.5938L39.3125 14.1875C39.2396 15.8125 39.0573 17.224 38.7656 18.4219C38.4844 19.6094 38.1354 20.625 37.7188 21.4688C37.3021 22.3021 36.8438 23.0052 36.3438 23.5781C35.8542 24.1406 35.3542 24.6146 34.8438 25H33.8281L33.8594 23.4062L34.3281 23.3906C34.6302 23.026 34.9427 22.6146 35.2656 22.1562C35.599 21.6875 35.9167 21.1146 36.2188 20.4375C36.5208 19.7604 36.7812 18.9167 37 17.9062C37.2188 16.8958 37.3646 15.6562 37.4375 14.1875L37.7344 8.09375ZM38.3438 8.09375H47.7031V25H45.8438V9.84375H38.3438V8.09375ZM33.1094 23.3906H49.4688V29.9688H47.5938V25H34.8906V29.9688H33.1094V23.3906ZM58.0938 23.3125L63.3594 8.09375H65.375L58.2188 27.7188C58.0729 28.1042 57.8854 28.5312 57.6562 29C57.4375 29.4688 57.1458 29.9167 56.7812 30.3438C56.4271 30.7812 55.9792 31.1354 55.4375 31.4062C54.9062 31.6875 54.2552 31.8281 53.4844 31.8281C53.2865 31.8281 53.0312 31.8021 52.7188 31.75C52.4167 31.7083 52.1979 31.6667 52.0625 31.625L52.0469 30.0469C52.1615 30.0781 52.3281 30.1042 52.5469 30.125C52.7656 30.1458 52.9167 30.1562 53 30.1562C53.6771 30.1562 54.2448 30.0417 54.7031 29.8125C55.1719 29.5833 55.5625 29.2396 55.875 28.7812C56.1875 28.3333 56.4635 27.7708 56.7031 27.0938L58.0938 23.3125ZM53.1719 8.09375L58.5625 22.6094L59.0625 24.5625L57.7031 25.3281L51.1406 8.09375H53.1719ZM81.6875 17.1875L74.8281 8.09375H77.0781L82.6406 15.5H85.7656L85.5938 17.1875H81.6875ZM82.8125 17L76.4219 25H74.0469L81.6406 15.5625L82.8125 17ZM86.7656 8.09375V25H84.9062V8.09375H86.7656ZM96.8906 8.09375L90 17.1875H86.125L85.9219 15.5H89.0625L94.6094 8.09375H96.8906ZM95.2812 25L88.875 17L90.0625 15.5625L97.6562 25H95.2812ZM103.672 8.09375H105.531L105.25 14.1875C105.177 15.8125 104.995 17.224 104.703 18.4219C104.422 19.6094 104.073 20.625 103.656 21.4688C103.24 22.3021 102.781 23.0052 102.281 23.5781C101.792 24.1406 101.292 24.6146 100.781 25H99.7656L99.7969 23.4062L100.266 23.3906C100.568 23.026 100.88 22.6146 101.203 22.1562C101.536 21.6875 101.854 21.1146 102.156 20.4375C102.458 19.7604 102.719 18.9167 102.938 17.9062C103.156 16.8958 103.302 15.6562 103.375 14.1875L103.672 8.09375ZM104.281 8.09375H113.641V25H111.781V9.84375H104.281V8.09375ZM99.0469 23.3906H115.406V29.9688H113.531V25H100.828V29.9688H99.0469V23.3906ZM129.297 21.9688V13.25C129.297 12.4479 129.13 11.7552 128.797 11.1719C128.464 10.5885 127.974 10.1406 127.328 9.82812C126.682 9.51562 125.885 9.35938 124.938 9.35938C124.062 9.35938 123.281 9.51562 122.594 9.82812C121.917 10.1302 121.38 10.5417 120.984 11.0625C120.599 11.5729 120.406 12.1406 120.406 12.7656L118.531 12.75C118.531 12.1146 118.688 11.5 119 10.9062C119.312 10.3125 119.755 9.78125 120.328 9.3125C120.901 8.84375 121.583 8.47396 122.375 8.20312C123.177 7.92188 124.057 7.78125 125.016 7.78125C126.224 7.78125 127.286 7.98438 128.203 8.39062C129.13 8.79688 129.854 9.40625 130.375 10.2188C130.896 11.0312 131.156 12.0521 131.156 13.2812V21.4531C131.156 22.0365 131.198 22.6406 131.281 23.2656C131.375 23.8906 131.505 24.4062 131.672 24.8125V25H129.688C129.562 24.625 129.464 24.1562 129.391 23.5938C129.328 23.0208 129.297 22.4792 129.297 21.9688ZM129.734 15.1562L129.766 16.5938H126.094C125.135 16.5938 124.276 16.6823 123.516 16.8594C122.766 17.026 122.13 17.276 121.609 17.6094C121.089 17.9323 120.688 18.3229 120.406 18.7812C120.135 19.2396 120 19.7604 120 20.3438C120 20.9479 120.151 21.5 120.453 22C120.766 22.5 121.203 22.901 121.766 23.2031C122.339 23.4948 123.016 23.6406 123.797 23.6406C124.839 23.6406 125.755 23.4479 126.547 23.0625C127.349 22.6771 128.01 22.1719 128.531 21.5469C129.052 20.9219 129.401 20.2396 129.578 19.5L130.391 20.5781C130.255 21.099 130.005 21.6354 129.641 22.1875C129.286 22.7292 128.823 23.2396 128.25 23.7188C127.677 24.1875 127 24.5729 126.219 24.875C125.448 25.1667 124.573 25.3125 123.594 25.3125C122.49 25.3125 121.526 25.1042 120.703 24.6875C119.891 24.2708 119.255 23.7031 118.797 22.9844C118.349 22.2552 118.125 21.4323 118.125 20.5156C118.125 19.6823 118.302 18.9375 118.656 18.2812C119.01 17.6146 119.521 17.0521 120.188 16.5938C120.865 16.125 121.677 15.7708 122.625 15.5312C123.583 15.2812 124.656 15.1562 125.844 15.1562H129.734ZM141.891 8.09375V25H140.031V8.09375H141.891ZM148.047 8.09375V9.6875H134.094V8.09375H148.047ZM152.531 14.2188H158.047C159.38 14.2188 160.505 14.4531 161.422 14.9219C162.339 15.3802 163.031 16.0156 163.5 16.8281C163.979 17.6406 164.219 18.5573 164.219 19.5781C164.219 20.349 164.083 21.0677 163.812 21.7344C163.552 22.3906 163.156 22.9635 162.625 23.4531C162.104 23.9427 161.458 24.3229 160.688 24.5938C159.927 24.8646 159.047 25 158.047 25H151.344V8.09375H153.203V23.3906H158.047C159.078 23.3906 159.911 23.2135 160.547 22.8594C161.182 22.4948 161.641 22.026 161.922 21.4531C162.214 20.8802 162.359 20.2708 162.359 19.625C162.359 18.9896 162.214 18.3854 161.922 17.8125C161.641 17.2292 161.182 16.7552 160.547 16.3906C159.911 16.0156 159.078 15.8281 158.047 15.8281H152.531V14.2188ZM182.047 8.09375V25H180.188V8.09375H182.047ZM188.203 8.09375V9.6875H174.25V8.09375H188.203ZM196.578 25.3125C195.474 25.3125 194.458 25.1094 193.531 24.7031C192.615 24.2969 191.812 23.724 191.125 22.9844C190.448 22.2448 189.922 21.3698 189.547 20.3594C189.182 19.3385 189 18.224 189 17.0156V16.3438C189 15.0417 189.193 13.8646 189.578 12.8125C189.964 11.7604 190.495 10.8594 191.172 10.1094C191.849 9.35938 192.62 8.78646 193.484 8.39062C194.359 7.98438 195.276 7.78125 196.234 7.78125C197.307 7.78125 198.26 7.97396 199.094 8.35938C199.927 8.73438 200.625 9.27083 201.188 9.96875C201.76 10.6562 202.193 11.474 202.484 12.4219C202.776 13.3594 202.922 14.3958 202.922 15.5312V16.6719H190.125V15.0781H201.062V14.8594C201.042 13.9115 200.849 13.026 200.484 12.2031C200.13 11.3698 199.599 10.6927 198.891 10.1719C198.182 9.65104 197.297 9.39062 196.234 9.39062C195.443 9.39062 194.714 9.55729 194.047 9.89062C193.391 10.224 192.823 10.7031 192.344 11.3281C191.875 11.9427 191.51 12.6771 191.25 13.5312C191 14.375 190.875 15.3125 190.875 16.3438V17.0156C190.875 17.9531 191.01 18.8281 191.281 19.6406C191.562 20.4427 191.958 21.151 192.469 21.7656C192.99 22.3802 193.604 22.8594 194.312 23.2031C195.021 23.5469 195.802 23.7188 196.656 23.7188C197.656 23.7188 198.542 23.5365 199.312 23.1719C200.083 22.7969 200.776 22.2083 201.391 21.4062L202.562 22.3125C202.198 22.8542 201.74 23.3542 201.188 23.8125C200.646 24.2708 199.995 24.6354 199.234 24.9062C198.474 25.1771 197.589 25.3125 196.578 25.3125ZM217.578 0.734375H219.188C219.188 1.51562 219.047 2.16667 218.766 2.6875C218.495 3.20833 218.109 3.63021 217.609 3.95312C217.109 4.27604 216.521 4.53125 215.844 4.71875C215.177 4.89583 214.448 5.04688 213.656 5.17188C212.688 5.31771 211.797 5.63542 210.984 6.125C210.182 6.61458 209.495 7.28646 208.922 8.14062C208.349 8.98438 207.917 10.0312 207.625 11.2812C207.344 12.5208 207.229 13.974 207.281 15.6406V17.0938H205.672V15.6406C205.672 13.8073 205.849 12.1823 206.203 10.7656C206.568 9.33854 207.083 8.11979 207.75 7.10938C208.427 6.09896 209.229 5.29688 210.156 4.70312C211.094 4.09896 212.13 3.70312 213.266 3.51562C214.328 3.34896 215.172 3.14583 215.797 2.90625C216.432 2.66667 216.885 2.36979 217.156 2.01562C217.438 1.66146 217.578 1.23438 217.578 0.734375ZM213.422 9.20312C214.526 9.20312 215.521 9.39062 216.406 9.76562C217.292 10.1406 218.047 10.6719 218.672 11.3594C219.307 12.0365 219.792 12.8385 220.125 13.7656C220.469 14.6823 220.641 15.6875 220.641 16.7812V17.2812C220.641 18.4479 220.464 19.5208 220.109 20.5C219.766 21.4792 219.266 22.3281 218.609 23.0469C217.964 23.7656 217.177 24.3229 216.25 24.7188C215.333 25.1146 214.307 25.3125 213.172 25.3125C212.026 25.3125 210.995 25.1146 210.078 24.7188C209.161 24.3229 208.375 23.7656 207.719 23.0469C207.062 22.3281 206.557 21.4792 206.203 20.5C205.849 19.5208 205.672 18.4479 205.672 17.2812V16.7812C205.672 16.4792 205.703 16.1823 205.766 15.8906C205.839 15.599 205.927 15.3125 206.031 15.0312C206.135 14.7396 206.24 14.4531 206.344 14.1719C206.708 13.224 207.224 12.3802 207.891 11.6406C208.557 10.8906 209.354 10.2969 210.281 9.85938C211.219 9.42188 212.266 9.20312 213.422 9.20312ZM213.141 10.7969C211.922 10.7969 210.896 11.0781 210.062 11.6406C209.24 12.1927 208.615 12.9271 208.188 13.8438C207.76 14.75 207.547 15.7292 207.547 16.7812V17.2812C207.547 18.1458 207.667 18.9635 207.906 19.7344C208.146 20.5052 208.5 21.1927 208.969 21.7969C209.448 22.3906 210.036 22.8594 210.734 23.2031C211.432 23.5469 212.245 23.7188 213.172 23.7188C214.089 23.7188 214.896 23.5469 215.594 23.2031C216.292 22.8594 216.875 22.3906 217.344 21.7969C217.812 21.1927 218.167 20.5052 218.406 19.7344C218.646 18.9635 218.766 18.1458 218.766 17.2812V16.7812C218.766 15.9896 218.646 15.2344 218.406 14.5156C218.167 13.7969 217.807 13.1615 217.328 12.6094C216.859 12.0469 216.271 11.6042 215.562 11.2812C214.865 10.9583 214.057 10.7969 213.141 10.7969ZM227.922 17.25H229.984L225.297 25H223.234L227.922 17.25ZM229.906 8.09375H236.547V25H234.688V9.6875H229.906C228.917 9.6875 228.109 9.85417 227.484 10.1875C226.87 10.5104 226.417 10.9375 226.125 11.4688C225.844 12 225.703 12.5677 225.703 13.1719C225.703 13.7448 225.828 14.2917 226.078 14.8125C226.339 15.3333 226.74 15.7604 227.281 16.0938C227.823 16.4167 228.526 16.5781 229.391 16.5781H235.359V18.1875H229.391C228.505 18.1875 227.719 18.0625 227.031 17.8125C226.344 17.5625 225.76 17.2135 225.281 16.7656C224.812 16.3073 224.453 15.7708 224.203 15.1562C223.964 14.5312 223.844 13.8594 223.844 13.1406C223.844 12.4115 223.974 11.7448 224.234 11.1406C224.505 10.526 224.896 9.98958 225.406 9.53125C225.927 9.07292 226.562 8.71875 227.312 8.46875C228.073 8.21875 228.938 8.09375 229.906 8.09375ZM72.5781 54.8125H69.8594V53.5469H72.4219C73.4635 53.5469 74.2917 53.4271 74.9062 53.1875C75.5208 52.9375 75.9635 52.5885 76.2344 52.1406C76.5052 51.6927 76.6406 51.1667 76.6406 50.5625C76.6406 49.9792 76.4948 49.4479 76.2031 48.9688C75.9219 48.4896 75.4688 48.1042 74.8438 47.8125C74.2188 47.5208 73.3906 47.375 72.3594 47.375C71.5677 47.375 70.8385 47.5156 70.1719 47.7969C69.5052 48.0781 68.9688 48.4635 68.5625 48.9531C68.1667 49.4427 67.9688 50.0104 67.9688 50.6562H66.0938C66.0938 49.6562 66.3854 48.7917 66.9688 48.0625C67.5521 47.3333 68.3177 46.7708 69.2656 46.375C70.224 45.9792 71.2552 45.7812 72.3594 45.7812C73.3177 45.7812 74.1771 45.8854 74.9375 46.0938C75.6979 46.3021 76.3438 46.6094 76.875 47.0156C77.4062 47.4219 77.8125 47.9271 78.0938 48.5312C78.375 49.125 78.5156 49.8073 78.5156 50.5781C78.5156 51.1615 78.3802 51.7083 78.1094 52.2188C77.849 52.7292 77.4635 53.1823 76.9531 53.5781C76.4531 53.9635 75.8333 54.2656 75.0938 54.4844C74.3646 54.7031 73.526 54.8125 72.5781 54.8125ZM69.8594 53.9531H72.5781C73.6198 53.9531 74.5312 54.0521 75.3125 54.25C76.0938 54.4375 76.7448 54.7188 77.2656 55.0938C77.7865 55.4688 78.1719 55.9323 78.4219 56.4844C78.6823 57.026 78.8125 57.651 78.8125 58.3594C78.8125 59.1302 78.6562 59.8229 78.3438 60.4375C78.0417 61.0521 77.6042 61.5729 77.0312 62C76.4583 62.4271 75.776 62.75 74.9844 62.9688C74.1927 63.1875 73.3177 63.2969 72.3594 63.2969C71.3281 63.2969 70.3073 63.1146 69.2969 62.75C68.2969 62.3854 67.4688 61.8229 66.8125 61.0625C66.1562 60.3021 65.8281 59.3333 65.8281 58.1562H67.6875C67.6875 58.8021 67.8906 59.3958 68.2969 59.9375C68.7031 60.4792 69.2552 60.9115 69.9531 61.2344C70.6615 61.5573 71.4635 61.7188 72.3594 61.7188C73.3698 61.7188 74.2135 61.5781 74.8906 61.2969C75.5677 61.0052 76.0781 60.6094 76.4219 60.1094C76.7656 59.6094 76.9375 59.0365 76.9375 58.3906C76.9375 57.6302 76.7708 57.0156 76.4375 56.5469C76.1146 56.0781 75.6198 55.7344 74.9531 55.5156C74.2865 55.2969 73.4427 55.1875 72.4219 55.1875H69.8594V53.9531ZM93.2344 59.9688V51.25C93.2344 50.4479 93.0677 49.7552 92.7344 49.1719C92.401 48.5885 91.9115 48.1406 91.2656 47.8281C90.6198 47.5156 89.8229 47.3594 88.875 47.3594C88 47.3594 87.2188 47.5156 86.5312 47.8281C85.8542 48.1302 85.3177 48.5417 84.9219 49.0625C84.5365 49.5729 84.3438 50.1406 84.3438 50.7656L82.4688 50.75C82.4688 50.1146 82.625 49.5 82.9375 48.9062C83.25 48.3125 83.6927 47.7812 84.2656 47.3125C84.8385 46.8438 85.5208 46.474 86.3125 46.2031C87.1146 45.9219 87.9948 45.7812 88.9531 45.7812C90.1615 45.7812 91.224 45.9844 92.1406 46.3906C93.0677 46.7969 93.7917 47.4062 94.3125 48.2188C94.8333 49.0312 95.0938 50.0521 95.0938 51.2812V59.4531C95.0938 60.0365 95.1354 60.6406 95.2188 61.2656C95.3125 61.8906 95.4427 62.4062 95.6094 62.8125V63H93.625C93.5 62.625 93.401 62.1562 93.3281 61.5938C93.2656 61.0208 93.2344 60.4792 93.2344 59.9688ZM93.6719 53.1562L93.7031 54.5938H90.0312C89.0729 54.5938 88.2135 54.6823 87.4531 54.8594C86.7031 55.026 86.0677 55.276 85.5469 55.6094C85.026 55.9323 84.625 56.3229 84.3438 56.7812C84.0729 57.2396 83.9375 57.7604 83.9375 58.3438C83.9375 58.9479 84.0885 59.5 84.3906 60C84.7031 60.5 85.1406 60.901 85.7031 61.2031C86.276 61.4948 86.9531 61.6406 87.7344 61.6406C88.776 61.6406 89.6927 61.4479 90.4844 61.0625C91.2865 60.6771 91.9479 60.1719 92.4688 59.5469C92.9896 58.9219 93.3385 58.2396 93.5156 57.5L94.3281 58.5781C94.1927 59.099 93.9427 59.6354 93.5781 60.1875C93.224 60.7292 92.7604 61.2396 92.1875 61.7188C91.6146 62.1875 90.9375 62.5729 90.1562 62.875C89.3854 63.1667 88.5104 63.3125 87.5312 63.3125C86.4271 63.3125 85.4635 63.1042 84.6406 62.6875C83.8281 62.2708 83.1927 61.7031 82.7344 60.9844C82.2865 60.2552 82.0625 59.4323 82.0625 58.5156C82.0625 57.6823 82.2396 56.9375 82.5938 56.2812C82.9479 55.6146 83.4583 55.0521 84.125 54.5938C84.8021 54.125 85.6146 53.7708 86.5625 53.5312C87.5208 53.2812 88.5938 53.1562 89.7812 53.1562H93.6719ZM107.578 55.2031H101.641L101.609 53.6406H106.672C107.693 53.6406 108.542 53.5312 109.219 53.3125C109.906 53.0833 110.422 52.7448 110.766 52.2969C111.12 51.849 111.297 51.2969 111.297 50.6406C111.297 50.1406 111.193 49.7031 110.984 49.3281C110.786 48.9531 110.484 48.6458 110.078 48.4062C109.682 48.1667 109.182 47.9896 108.578 47.875C107.984 47.75 107.292 47.6875 106.5 47.6875H102.172V63H100.312V46.0938H106.5C107.531 46.0938 108.453 46.1875 109.266 46.375C110.089 46.5521 110.792 46.8229 111.375 47.1875C111.958 47.5521 112.401 48.0208 112.703 48.5938C113.016 49.1562 113.172 49.8229 113.172 50.5938C113.172 51.1146 113.073 51.6042 112.875 52.0625C112.677 52.5104 112.385 52.9167 112 53.2812C111.625 53.6354 111.161 53.9271 110.609 54.1562C110.057 54.375 109.422 54.5104 108.703 54.5625L107.578 55.2031ZM107.578 63H101.062L101.781 61.4062H107.578C108.516 61.4062 109.312 61.2865 109.969 61.0469C110.625 60.8073 111.12 60.4531 111.453 59.9844C111.797 59.5156 111.969 58.9479 111.969 58.2812C111.969 57.6562 111.797 57.1146 111.453 56.6562C111.12 56.1979 110.625 55.8438 109.969 55.5938C109.312 55.3333 108.516 55.2031 107.578 55.2031H103.266L103.297 53.6406H108.844L109.641 54.2344C110.495 54.3073 111.234 54.5365 111.859 54.9219C112.484 55.3073 112.969 55.7969 113.312 56.3906C113.656 56.974 113.828 57.6146 113.828 58.3125C113.828 59.0833 113.682 59.7656 113.391 60.3594C113.099 60.9427 112.677 61.4323 112.125 61.8281C111.583 62.2135 110.927 62.5052 110.156 62.7031C109.385 62.901 108.526 63 107.578 63ZM123.797 46.0938V63H121.938V46.0938H123.797ZM129.953 46.0938V47.6875H116V46.0938H129.953ZM134.891 49.3438V69.5H133.016V46.0938H134.766L134.891 49.3438ZM146.641 54.3906V54.7188C146.641 55.9792 146.495 57.1354 146.203 58.1875C145.911 59.2396 145.49 60.151 144.938 60.9219C144.396 61.6823 143.724 62.2708 142.922 62.6875C142.12 63.1042 141.208 63.3125 140.188 63.3125C139.177 63.3125 138.276 63.1562 137.484 62.8438C136.693 62.5312 136.01 62.0885 135.438 61.5156C134.875 60.9323 134.422 60.2552 134.078 59.4844C133.745 58.7031 133.51 57.849 133.375 56.9219V52.5938C133.531 51.5729 133.786 50.6458 134.141 49.8125C134.495 48.9792 134.948 48.2604 135.5 47.6562C136.062 47.0521 136.729 46.5885 137.5 46.2656C138.271 45.9427 139.151 45.7812 140.141 45.7812C141.172 45.7812 142.089 45.9844 142.891 46.3906C143.703 46.7865 144.385 47.3646 144.938 48.125C145.5 48.875 145.922 49.7812 146.203 50.8438C146.495 51.8958 146.641 53.0781 146.641 54.3906ZM144.766 54.7188V54.3906C144.766 53.401 144.661 52.4844 144.453 51.6406C144.255 50.7969 143.948 50.0625 143.531 49.4375C143.125 48.8021 142.604 48.3073 141.969 47.9531C141.344 47.599 140.599 47.4219 139.734 47.4219C138.839 47.4219 138.073 47.5729 137.438 47.875C136.812 48.1667 136.292 48.5573 135.875 49.0469C135.458 49.526 135.13 50.0521 134.891 50.625C134.651 51.1979 134.474 51.7604 134.359 52.3125V57.2969C134.557 58.0885 134.875 58.8229 135.312 59.5C135.75 60.1667 136.333 60.7031 137.062 61.1094C137.802 61.5052 138.703 61.7031 139.766 61.7031C140.62 61.7031 141.359 61.526 141.984 61.1719C142.609 60.8177 143.125 60.3229 143.531 59.6875C143.948 59.0521 144.255 58.3125 144.453 57.4688C144.661 56.625 144.766 55.7083 144.766 54.7188ZM161.078 59.9688V51.25C161.078 50.4479 160.911 49.7552 160.578 49.1719C160.245 48.5885 159.755 48.1406 159.109 47.8281C158.464 47.5156 157.667 47.3594 156.719 47.3594C155.844 47.3594 155.062 47.5156 154.375 47.8281C153.698 48.1302 153.161 48.5417 152.766 49.0625C152.38 49.5729 152.188 50.1406 152.188 50.7656L150.312 50.75C150.312 50.1146 150.469 49.5 150.781 48.9062C151.094 48.3125 151.536 47.7812 152.109 47.3125C152.682 46.8438 153.365 46.474 154.156 46.2031C154.958 45.9219 155.839 45.7812 156.797 45.7812C158.005 45.7812 159.068 45.9844 159.984 46.3906C160.911 46.7969 161.635 47.4062 162.156 48.2188C162.677 49.0312 162.938 50.0521 162.938 51.2812V59.4531C162.938 60.0365 162.979 60.6406 163.062 61.2656C163.156 61.8906 163.286 62.4062 163.453 62.8125V63H161.469C161.344 62.625 161.245 62.1562 161.172 61.5938C161.109 61.0208 161.078 60.4792 161.078 59.9688ZM161.516 53.1562L161.547 54.5938H157.875C156.917 54.5938 156.057 54.6823 155.297 54.8594C154.547 55.026 153.911 55.276 153.391 55.6094C152.87 55.9323 152.469 56.3229 152.188 56.7812C151.917 57.2396 151.781 57.7604 151.781 58.3438C151.781 58.9479 151.932 59.5 152.234 60C152.547 60.5 152.984 60.901 153.547 61.2031C154.12 61.4948 154.797 61.6406 155.578 61.6406C156.62 61.6406 157.536 61.4479 158.328 61.0625C159.13 60.6771 159.792 60.1719 160.312 59.5469C160.833 58.9219 161.182 58.2396 161.359 57.5L162.172 58.5781C162.036 59.099 161.786 59.6354 161.422 60.1875C161.068 60.7292 160.604 61.2396 160.031 61.7188C159.458 62.1875 158.781 62.5729 158 62.875C157.229 63.1667 156.354 63.3125 155.375 63.3125C154.271 63.3125 153.307 63.1042 152.484 62.6875C151.672 62.2708 151.036 61.7031 150.578 60.9844C150.13 60.2552 149.906 59.4323 149.906 58.5156C149.906 57.6823 150.083 56.9375 150.438 56.2812C150.792 55.6146 151.302 55.0521 151.969 54.5938C152.646 54.125 153.458 53.7708 154.406 53.5312C155.365 53.2812 156.438 53.1562 157.625 53.1562H161.516ZM170.047 40.25L169.938 56.6562H168.219L168.109 40.25H170.047ZM167.906 61.8906C167.906 61.5365 168.016 61.2396 168.234 61C168.464 60.75 168.781 60.625 169.188 60.625C169.583 60.625 169.896 60.75 170.125 61C170.365 61.2396 170.484 61.5365 170.484 61.8906C170.484 62.2344 170.365 62.5312 170.125 62.7812C169.896 63.0208 169.583 63.1406 169.188 63.1406C168.781 63.1406 168.464 63.0208 168.234 62.7812C168.016 62.5312 167.906 62.2344 167.906 61.8906Z" fill="#4D4D4D"/>
</svg>
