<svg width="20" height="20" viewBox="0 0 20 20" fill="none" xmlns="http://www.w3.org/2000/svg">
<path d="M17.9682 9.45948L9.53516 2.14028C9.47042 2.08448 9.38784 2.05323 9.30078 2.05323H7.32534C7.16016 2.05323 7.08426 2.25859 7.20926 2.36573L15.0262 9.15145H1.96373C1.86551 9.15145 1.78516 9.2318 1.78516 9.33002V10.6693C1.78516 10.7675 1.86551 10.8479 1.96373 10.8479H15.024L7.20703 17.6336C7.08203 17.743 7.15792 17.9461 7.3231 17.9461H9.36551C9.40792 17.9461 9.45033 17.9305 9.48158 17.9014L17.9682 10.5398C18.0455 10.4726 18.1074 10.3896 18.1499 10.2965C18.1923 10.2033 18.2143 10.1021 18.2143 9.99966C18.2143 9.89726 18.1923 9.79604 18.1499 9.70286C18.1074 9.60967 18.0455 9.52668 17.9682 9.45948V9.45948Z" fill="#FFC107"/>
</svg>
