<svg width="70" height="70" viewBox="0 0 70 70" fill="none" xmlns="http://www.w3.org/2000/svg">
<circle cx="35" cy="35" r="35" fill="white"/>
<path d="M35 4.375C18.0879 4.375 4.375 18.0879 4.375 35C4.375 51.9121 18.0879 65.625 35 65.625C51.9121 65.625 65.625 51.9121 65.625 35C65.625 18.0879 51.9121 4.375 35 4.375ZM37.1875 49.7656C37.1875 50.0664 36.9414 50.3125 36.6406 50.3125H33.3594C33.0586 50.3125 32.8125 50.0664 32.8125 49.7656V31.1719C32.8125 30.8711 33.0586 30.625 33.3594 30.625H36.6406C36.9414 30.625 37.1875 30.8711 37.1875 31.1719V49.7656ZM35 26.25C34.1414 26.2325 33.3238 25.8791 32.7227 25.2656C32.1217 24.6522 31.785 23.8276 31.785 22.9688C31.785 22.1099 32.1217 21.2853 32.7227 20.6719C33.3238 20.0584 34.1414 19.705 35 19.6875C35.8586 19.705 36.6762 20.0584 37.2773 20.6719C37.8783 21.2853 38.215 22.1099 38.215 22.9688C38.215 23.8276 37.8783 24.6522 37.2773 25.2656C36.6762 25.8791 35.8586 26.2325 35 26.25Z" fill="#6C10BD"/>
</svg>
