<svg width="21" height="22" viewBox="0 0 21 22" fill="none" xmlns="http://www.w3.org/2000/svg">
<path d="M19.3527 17.1301C18.8475 15.9519 18.1142 14.8818 17.1938 13.9792C16.2762 13.074 15.1893 12.3524 13.9929 11.854C13.9822 11.8487 13.9715 11.8461 13.9608 11.8408C15.6295 10.6543 16.7144 8.72158 16.7144 6.54102C16.7144 2.92871 13.7411 0.00195312 10.0715 0.00195312C6.40185 0.00195312 3.42864 2.92871 3.42864 6.54102C3.42864 8.72158 4.51346 10.6543 6.18221 11.8435C6.1715 11.8487 6.16078 11.8514 6.15007 11.8566C4.95007 12.355 3.87328 13.0695 2.94917 13.9818C2.02965 14.8851 1.29651 15.9551 0.790246 17.1327C0.292894 18.2856 0.0246614 19.5217 6.69804e-05 20.774C-0.000647944 20.8022 0.00436642 20.8302 0.0148147 20.8564C0.0252631 20.8826 0.0409339 20.9065 0.0609038 20.9266C0.0808737 20.9468 0.104739 20.9628 0.131092 20.9737C0.157446 20.9846 0.185756 20.9902 0.214353 20.9902H1.8215C1.93935 20.9902 2.0331 20.898 2.03578 20.7846C2.08935 18.749 2.91971 16.8427 4.38757 15.3978C5.90632 13.9027 7.92328 13.0801 10.0715 13.0801C12.2197 13.0801 14.2367 13.9027 15.7554 15.3978C17.2233 16.8427 18.0536 18.749 18.1072 20.7846C18.1099 20.9006 18.2036 20.9902 18.3215 20.9902H19.9286C19.9572 20.9902 19.9855 20.9846 20.0119 20.9737C20.0383 20.9628 20.0621 20.9468 20.0821 20.9266C20.1021 20.9065 20.1177 20.8826 20.1282 20.8564C20.1386 20.8302 20.1436 20.8022 20.1429 20.774C20.1161 19.5137 19.851 18.2876 19.3527 17.1301V17.1301ZM10.0715 11.0762C8.84203 11.0762 7.68489 10.6042 6.81435 9.74727C5.94382 8.89033 5.46435 7.75127 5.46435 6.54102C5.46435 5.33076 5.94382 4.1917 6.81435 3.33477C7.68489 2.47783 8.84203 2.00586 10.0715 2.00586C11.301 2.00586 12.4581 2.47783 13.3286 3.33477C14.1992 4.1917 14.6786 5.33076 14.6786 6.54102C14.6786 7.75127 14.1992 8.89033 13.3286 9.74727C12.4581 10.6042 11.301 11.0762 10.0715 11.0762Z" fill="#4CAF50"/>
<path d="M10.5703 15.4688V21.1562H9.40234V15.4688H10.5703ZM12.3203 15.4688V16.3867H7.67969V15.4688H12.3203Z" fill="#4CAF50"/>
</svg>
