<svg width="60" height="60" viewBox="0 0 60 60" fill="none" xmlns="http://www.w3.org/2000/svg">
<rect width="60" height="60" rx="30" fill="#A78BFA"/>
<path d="M30 56.25C23.0381 56.25 16.3613 53.4844 11.4384 48.5616C6.51562 43.6387 3.75 36.9619 3.75 30C3.75 23.0381 6.51562 16.3613 11.4384 11.4384C16.3613 6.51562 23.0381 3.75 30 3.75C36.9619 3.75 43.6387 6.51562 48.5616 11.4384C53.4844 16.3613 56.25 23.0381 56.25 30C56.25 36.9619 53.4844 43.6387 48.5616 48.5616C43.6387 53.4844 36.9619 56.25 30 56.25ZM30 60C37.9565 60 45.5871 56.8393 51.2132 51.2132C56.8393 45.5871 60 37.9565 60 30C60 22.0435 56.8393 14.4129 51.2132 8.7868C45.5871 3.16071 37.9565 0 30 0C22.0435 0 14.4129 3.16071 8.7868 8.7868C3.16071 14.4129 0 22.0435 0 30C0 37.9565 3.16071 45.5871 8.7868 51.2132C14.4129 56.8393 22.0435 60 30 60Z" fill="#4D4D4D"/>
<path d="M16.0683 35.8763C16.499 35.6276 17.0107 35.5602 17.4911 35.6889C17.9714 35.8176 18.3809 36.1319 18.6296 36.5625C19.7818 38.5583 21.4392 40.2154 23.4351 41.3674C25.431 42.5194 27.6951 43.1256 29.9996 43.125C32.3041 43.1256 34.5681 42.5194 36.564 41.3674C38.5599 40.2154 40.2173 38.5583 41.3696 36.5625C41.4918 36.3475 41.6553 36.1589 41.8507 36.0074C42.0462 35.8559 42.2696 35.7445 42.5083 35.6797C42.7469 35.6149 42.996 35.598 43.2412 35.6299C43.4864 35.6617 43.7229 35.7418 43.937 35.8654C44.1512 35.9891 44.3388 36.1539 44.489 36.3503C44.6392 36.5467 44.749 36.7709 44.8122 37.01C44.8754 37.249 44.8907 37.4982 44.8572 37.7432C44.8237 37.9882 44.7421 38.2242 44.6171 38.4375C43.1357 41.0033 41.0049 43.1339 38.4389 44.615C35.873 46.0961 32.9623 46.8756 29.9996 46.875C27.0368 46.8756 24.1261 46.0961 21.5602 44.615C18.9942 43.1339 16.8634 41.0033 15.3821 38.4375C15.1334 38.0069 15.0661 37.4951 15.1947 37.0148C15.3234 36.5344 15.6377 36.1249 16.0683 35.8763ZM26.2496 24.375C26.2496 27.48 24.5696 30 22.4996 30C20.4296 30 18.7496 27.48 18.7496 24.375C18.7496 21.27 20.4296 18.75 22.4996 18.75C24.5696 18.75 26.2496 21.27 26.2496 24.375ZM41.2496 24.375C41.2496 27.48 39.5696 30 37.4996 30C35.4296 30 33.7496 27.48 33.7496 24.375C33.7496 21.27 35.4296 18.75 37.4996 18.75C39.5696 18.75 41.2496 21.27 41.2496 24.375Z" fill="#4D4D4D"/>
</svg>
