<svg width="20" height="21" viewBox="0 0 20 21" fill="none" xmlns="http://www.w3.org/2000/svg">
<path d="M10.67 2.0636H9.33067C9.21162 2.0636 9.1521 2.1261 9.1521 2.2511V9.61047H2.50084C2.38179 9.61047 2.32227 9.67297 2.32227 9.79797V11.2042C2.32227 11.3292 2.38179 11.3917 2.50084 11.3917H9.1521V18.7511C9.1521 18.8761 9.21162 18.9386 9.33067 18.9386H10.67C10.789 18.9386 10.8485 18.8761 10.8485 18.7511V11.3917H17.5008C17.6199 11.3917 17.6794 11.3292 17.6794 11.2042V9.79797C17.6794 9.67297 17.6199 9.61047 17.5008 9.61047H10.8485V2.2511C10.8485 2.1261 10.789 2.0636 10.67 2.0636Z" fill="#4CAF50"/>
</svg>
