<svg width="70" height="70" viewBox="0 0 70 70" fill="none" xmlns="http://www.w3.org/2000/svg">
<rect width="70" height="70" rx="35" fill="white"/>
<path d="M35 5C18.433 5 5 18.433 5 35C5 51.567 18.433 65 35 65C51.567 65 65 51.567 65 35C65 18.433 51.567 5 35 5ZM35 52.4107C33.5201 52.4107 32.3214 51.2121 32.3214 49.7321C32.3214 48.2522 33.5201 47.0536 35 47.0536C36.4799 47.0536 37.6786 48.2522 37.6786 49.7321C37.6786 51.2121 36.4799 52.4107 35 52.4107ZM39.2121 37.7121C38.6056 37.9462 38.0838 38.3577 37.7147 38.8929C37.3456 39.428 37.1463 40.062 37.1429 40.7121V42.2321C37.1429 42.5268 36.9018 42.7679 36.6071 42.7679H33.3929C33.0982 42.7679 32.8571 42.5268 32.8571 42.2321V40.7924C32.8571 39.2455 33.3058 37.7187 34.1897 36.4464C35.0536 35.2009 36.2589 34.25 37.6786 33.7076C39.9554 32.8304 41.4286 30.9219 41.4286 28.8393C41.4286 25.8862 38.5424 23.4821 35 23.4821C31.4576 23.4821 28.5714 25.8862 28.5714 28.8393V29.3482C28.5714 29.6429 28.3304 29.8839 28.0357 29.8839H24.8214C24.5268 29.8839 24.2857 29.6429 24.2857 29.3482V28.8393C24.2857 26.2076 25.4375 23.75 27.5268 21.9219C29.5357 20.1607 32.1875 19.1964 35 19.1964C37.8125 19.1964 40.4643 20.1674 42.4732 21.9219C44.5625 23.75 45.7143 26.2076 45.7143 28.8393C45.7143 32.7098 43.1629 36.192 39.2121 37.7121Z" fill="#6C10BD"/>
</svg>
