<svg width="60" height="60" viewBox="0 0 60 60" fill="none" xmlns="http://www.w3.org/2000/svg">
<rect width="60" height="60" rx="30" fill="#DDD6FE"/>
<path d="M30 56.25C23.0381 56.25 16.3613 53.4844 11.4384 48.5616C6.51562 43.6387 3.75 36.9619 3.75 30C3.75 23.0381 6.51562 16.3613 11.4384 11.4384C16.3613 6.51562 23.0381 3.75 30 3.75C36.9619 3.75 43.6387 6.51562 48.5616 11.4384C53.4844 16.3613 56.25 23.0381 56.25 30C56.25 36.9619 53.4844 43.6387 48.5616 48.5616C43.6387 53.4844 36.9619 56.25 30 56.25ZM30 60C37.9565 60 45.5871 56.8393 51.2132 51.2132C56.8393 45.5871 60 37.9565 60 30C60 22.0435 56.8393 14.4129 51.2132 8.7868C45.5871 3.16071 37.9565 0 30 0C22.0435 0 14.4129 3.16071 8.7868 8.7868C3.16071 14.4129 0 22.0435 0 30C0 37.9565 3.16071 45.5871 8.7868 51.2132C14.4129 56.8393 22.0435 60 30 60Z" fill="#4D4D4D"/>
<path d="M16.0688 46.6237C16.4994 46.8724 17.0112 46.9398 17.4915 46.8111C17.9719 46.6824 18.3814 46.3681 18.63 45.9375C19.7823 43.9417 21.4397 42.2846 23.4356 41.1326C25.4315 39.9806 27.6955 39.3744 30 39.375C34.8563 39.375 39.0975 42.0112 41.37 45.9375C41.6205 46.3646 42.0296 46.6754 42.5083 46.8019C42.987 46.9285 43.4963 46.8606 43.9251 46.613C44.3539 46.3654 44.6673 45.9583 44.7971 45.4805C44.9268 45.0027 44.8623 44.4929 44.6175 44.0625C43.1362 41.4967 41.0054 39.3661 38.4394 37.885C35.8735 36.4039 32.9628 35.6244 30 35.625C27.0373 35.6244 24.1266 36.4039 21.5607 37.885C18.9947 39.3661 16.8639 41.4967 15.3825 44.0625C15.1339 44.4931 15.0665 45.0049 15.1952 45.4852C15.3239 45.9656 15.6382 46.3751 16.0688 46.6237ZM26.25 24.375C26.25 27.48 24.57 30 22.5 30C20.43 30 18.75 27.48 18.75 24.375C18.75 21.27 20.43 18.75 22.5 18.75C24.57 18.75 26.25 21.27 26.25 24.375ZM41.25 24.375C41.25 27.48 39.57 30 37.5 30C35.43 30 33.75 27.48 33.75 24.375C33.75 21.27 35.43 18.75 37.5 18.75C39.57 18.75 41.25 21.27 41.25 24.375Z" fill="#4D4D4D"/>
</svg>
