<svg width="60" height="60" viewBox="0 0 60 60" fill="none" xmlns="http://www.w3.org/2000/svg">
<rect width="60" height="60" rx="30" fill="#EDE9FE"/>
<path d="M30 56.25C23.0381 56.25 16.3613 53.4844 11.4384 48.5616C6.51562 43.6387 3.75 36.9619 3.75 30C3.75 23.0381 6.51562 16.3613 11.4384 11.4384C16.3613 6.51562 23.0381 3.75 30 3.75C36.9619 3.75 43.6387 6.51562 48.5616 11.4384C53.4844 16.3613 56.25 23.0381 56.25 30C56.25 36.9619 53.4844 43.6387 48.5616 48.5616C43.6387 53.4844 36.9619 56.25 30 56.25ZM30 60C37.9565 60 45.5871 56.8393 51.2132 51.2132C56.8393 45.5871 60 37.9565 60 30C60 22.0435 56.8393 14.4129 51.2132 8.7868C45.5871 3.16071 37.9565 0 30 0C22.0435 0 14.4129 3.16071 8.7868 8.7868C3.16071 14.4129 0 22.0435 0 30C0 37.9565 3.16071 45.5871 8.7868 51.2132C14.4129 56.8393 22.0435 60 30 60Z" fill="#4D4D4D"/>
<path d="M25.6162 42.8625C27.007 42.2891 28.4957 41.9911 30 41.985C33.435 41.985 36.0263 43.515 38.4375 45.0825C39.2325 45.6 40.0275 44.8237 39.495 44.0438C37.38 40.9312 33.6525 36.36 30 36.36C28.0125 36.36 26.0025 37.7138 24.24 39.45C24.555 40.125 24.845 40.7938 25.11 41.4563C25.2825 41.8913 25.4512 42.3575 25.6162 42.855V42.8625ZM22.5 42.4988C22.5 45.9487 19.98 48.75 16.875 48.75C13.77 48.75 11.25 45.9525 11.25 42.4988C11.25 39.8513 14.5575 33.9113 16.1025 31.2863C16.1809 31.1508 16.2935 31.0383 16.4291 30.9601C16.5647 30.8819 16.7185 30.8407 16.875 30.8407C17.0315 30.8407 17.1853 30.8819 17.3209 30.9601C17.4565 31.0383 17.5691 31.1508 17.6475 31.2863C19.1925 33.9113 22.5 39.8513 22.5 42.4988ZM26.25 24.375C26.25 27.48 24.57 30 22.5 30C20.43 30 18.75 27.48 18.75 24.375C18.75 21.27 20.43 18.75 22.5 18.75C24.57 18.75 26.25 21.27 26.25 24.375ZM41.25 24.375C41.25 27.48 39.57 30 37.5 30C35.43 30 33.75 27.48 33.75 24.375C33.75 21.27 35.43 18.75 37.5 18.75C39.57 18.75 41.25 21.27 41.25 24.375ZM35.625 13.125C35.625 12.6277 35.8225 12.1508 36.1742 11.7992C36.5258 11.4475 37.0027 11.25 37.5 11.25C41.8575 11.25 46.3125 13.44 48.5512 17.91C48.6638 18.1304 48.7317 18.3708 48.7509 18.6175C48.7701 18.8642 48.7402 19.1123 48.6631 19.3474C48.586 19.5825 48.4631 19.8001 48.3015 19.9875C48.1399 20.1749 47.9428 20.3284 47.7215 20.4393C47.5003 20.5501 47.2593 20.6161 47.0125 20.6334C46.7656 20.6507 46.5178 20.6189 46.2833 20.54C46.0488 20.461 45.8322 20.3365 45.6461 20.1734C45.4599 20.0104 45.3079 19.8121 45.1988 19.59C43.6838 16.56 40.6425 15 37.5 15C37.0027 15 36.5258 14.8025 36.1742 14.4508C35.8225 14.0992 35.625 13.6223 35.625 13.125ZM26.25 13.125C26.25 12.6277 26.0525 12.1508 25.7008 11.7992C25.3492 11.4475 24.8723 11.25 24.375 11.25C20.0175 11.25 15.5625 13.44 13.3238 17.91C13.2112 18.1304 13.1433 18.3708 13.1241 18.6175C13.1049 18.8642 13.1348 19.1123 13.2119 19.3474C13.289 19.5825 13.4119 19.8001 13.5735 19.9875C13.7351 20.1749 13.9322 20.3284 14.1535 20.4393C14.3747 20.5501 14.6157 20.6161 14.8625 20.6334C15.1094 20.6507 15.3572 20.6189 15.5917 20.54C15.8262 20.461 16.0428 20.3365 16.2289 20.1734C16.4151 20.0104 16.5671 19.8121 16.6762 19.59C18.1913 16.56 21.2325 15 24.375 15C24.8723 15 25.3492 14.8025 25.7008 14.4508C26.0525 14.0992 26.25 13.6223 26.25 13.125Z" fill="#4D4D4D"/>
</svg>
