<svg width="60" height="60" viewBox="0 0 60 60" fill="none" xmlns="http://www.w3.org/2000/svg">
<g filter="url(#filter0_i_4059_3625)">
<rect width="60" height="60" rx="30" fill="#9169EC"/>
<path d="M48.5476 42.7425C46.0347 46.3973 42.498 49.2282 38.3815 50.8796C34.2651 52.5311 29.7525 52.9295 25.4104 52.0249C21.0683 51.1202 17.0902 48.9529 13.9758 45.7949C10.8614 42.637 8.74941 38.6292 7.90511 34.275C7.47761 32.0438 9.50261 30.27 11.7601 30.5362C16.5189 31.0837 24.3001 31.875 30.0001 31.875C35.7001 31.875 43.4814 31.0875 48.2401 30.5325C50.4976 30.27 52.5226 32.04 52.0951 34.275C51.5123 37.3129 50.3043 40.1964 48.5476 42.7425ZM48.2551 34.305C43.4551 34.8562 35.7714 35.625 30.0001 35.625C24.2289 35.625 16.5414 34.8562 11.7451 34.305C12.1576 36.06 12.8176 37.7175 13.6839 39.2437C19.0969 39.9204 24.5451 40.2773 30.0001 40.3125C35.4551 40.2773 40.9034 39.9204 46.3164 39.2437C47.1826 37.7175 47.8426 36.0562 48.2551 34.305ZM43.1551 43.365C39.3301 43.74 34.6989 44.0625 30.0001 44.0625C25.3014 44.0625 20.6701 43.74 16.8489 43.365C20.3562 46.8161 25.0796 48.7502 30.0001 48.75C34.9206 48.7502 39.644 46.8161 43.1514 43.365H43.1551ZM24.3301 26.25C24.7576 25.1475 25.0014 23.865 25.0014 22.5C25.0014 18.3562 22.7626 15 19.9989 15C17.2389 15 15.0001 18.3562 15.0001 22.5C15.0001 23.865 15.2439 25.1475 15.6676 26.25C16.5301 24.0075 18.1501 22.5 19.9989 22.5C21.8514 22.5 23.4676 24.0075 24.3301 26.25ZM45.0001 22.5C45.0001 23.865 44.7564 25.1475 44.3326 26.25C43.4701 24.0075 41.8501 22.5 40.0014 22.5C38.1489 22.5 36.5326 24.0075 35.6701 26.25C35.2196 25.0514 34.9921 23.7805 34.9989 22.5C34.9989 18.3562 37.2376 15 40.0014 15C42.7614 15 45.0001 18.3562 45.0001 22.5Z" fill="#4D4D4D"/>
<path d="M30 60C37.9565 60 45.5871 56.8393 51.2132 51.2132C56.8393 45.5871 60 37.9565 60 30C60 22.0435 56.8393 14.4129 51.2132 8.7868C45.5871 3.16071 37.9565 0 30 0C22.0435 0 14.4129 3.16071 8.7868 8.7868C3.16071 14.4129 0 22.0435 0 30C0 37.9565 3.16071 45.5871 8.7868 51.2132C14.4129 56.8393 22.0435 60 30 60ZM30 56.25C23.0381 56.25 16.3613 53.4844 11.4384 48.5616C6.51562 43.6387 3.75 36.9619 3.75 30C3.75 23.0381 6.51562 16.3613 11.4384 11.4384C16.3613 6.51562 23.0381 3.75 30 3.75C36.9619 3.75 43.6387 6.51562 48.5616 11.4384C53.4844 16.3613 56.25 23.0381 56.25 30C56.25 36.9619 53.4844 43.6387 48.5616 48.5616C43.6387 53.4844 36.9619 56.25 30 56.25Z" fill="#4D4D4D"/>
</g>
<defs>
<filter id="filter0_i_4059_3625" x="0" y="0" width="60" height="64" filterUnits="userSpaceOnUse" color-interpolation-filters="sRGB">
<feFlood flood-opacity="0" result="BackgroundImageFix"/>
<feBlend mode="normal" in="SourceGraphic" in2="BackgroundImageFix" result="shape"/>
<feColorMatrix in="SourceAlpha" type="matrix" values="0 0 0 0 0 0 0 0 0 0 0 0 0 0 0 0 0 0 127 0" result="hardAlpha"/>
<feOffset dy="4"/>
<feGaussianBlur stdDeviation="2"/>
<feComposite in2="hardAlpha" operator="arithmetic" k2="-1" k3="1"/>
<feColorMatrix type="matrix" values="0 0 0 0 0 0 0 0 0 0 0 0 0 0 0 0 0 0 0.25 0"/>
<feBlend mode="normal" in2="shape" result="effect1_innerShadow_4059_3625"/>
</filter>
</defs>
</svg>
